<?xml version="1.0" encoding="UTF-8" standalone="no"?>
<!-- Created with Inkscape (http://www.inkscape.org/) -->

<svg
   xmlns:dc="http://purl.org/dc/elements/1.1/"
   xmlns:cc="http://creativecommons.org/ns#"
   xmlns:rdf="http://www.w3.org/1999/02/22-rdf-syntax-ns#"
   xmlns:svg="http://www.w3.org/2000/svg"
   xmlns="http://www.w3.org/2000/svg"
   xmlns:sodipodi="http://sodipodi.sourceforge.net/DTD/sodipodi-0.dtd"
   xmlns:inkscape="http://www.inkscape.org/namespaces/inkscape"
   width="1280"
   height="720"
   id="svg4888"
   version="1.1"
   inkscape:version="0.48.5 r10040"
   sodipodi:docname="docs.svg">
  <defs
     id="defs4890" />
  <sodipodi:namedview
     id="base"
     pagecolor="#ffffff"
     bordercolor="#666666"
     borderopacity="1.0"
     inkscape:pageopacity="0.0"
     inkscape:pageshadow="2"
     inkscape:zoom="0.69977474"
     inkscape:cx="437.56502"
     inkscape:cy="395.00169"
     inkscape:document-units="px"
     inkscape:current-layer="layer1"
     showgrid="false"
     inkscape:window-width="1920"
     inkscape:window-height="1014"
     inkscape:window-x="0"
     inkscape:window-y="27"
     inkscape:window-maximized="1" />
  <metadata
     id="metadata4893">
    <rdf:RDF>
      <cc:Work
         rdf:about="">
        <dc:format>image/svg+xml</dc:format>
        <dc:type
           rdf:resource="http://purl.org/dc/dcmitype/StillImage" />
        <dc:title></dc:title>
      </cc:Work>
    </rdf:RDF>
  </metadata>
  <g
     inkscape:label="Layer 1"
     inkscape:groupmode="layer"
     id="layer1"
     transform="translate(0,-332.36218)"
     sodipodi:insensitive="true">
    <g
       id="g5499"
       transform="translate(-2.3223997,16.17242)">
      <path
         sodipodi:type="arc"
         style="color:#000000;fill:#ffffff;fill-opacity:1;fill-rule:nonzero;stroke:#000000;stroke-width:0.07381648;stroke-linecap:round;stroke-linejoin:round;stroke-miterlimit:4;stroke-opacity:1;stroke-dasharray:none;stroke-dashoffset:0;marker:none;visibility:visible;display:inline;overflow:visible;enable-background:accumulate"
         id="path3076"
         sodipodi:cx="181"
         sodipodi:cy="898.36218"
         sodipodi:rx="4"
         sodipodi:ry="4"
         d="m 185,898.36218 a 4,4 0 1 1 -8,0 4,4 0 1 1 8,0 z"
         transform="matrix(27.094221,0,0,27.094221,-4169.9799,-23877.413)" />
      <g
         id="text3101"
         style="font-size:315.27819824px;font-style:normal;font-variant:normal;font-weight:normal;font-stretch:normal;text-align:start;line-height:125%;letter-spacing:0px;word-spacing:0px;writing-mode:lr-tb;text-anchor:start;fill:#000000;fill-opacity:1;stroke:none;font-family:Lato;-inkscape-font-specification:Lato">
        <path
           id="path5482"
           style="font-size:210.18547058px"
           d="m 695.92545,401.21604 c 2.17191,-2.03165 4.55401,-3.95835 7.1463,-5.7801 2.66234,-1.82146 5.53487,-3.43288 8.61761,-4.83427 3.15276,-1.40108 6.51572,-2.48704 10.0889,-3.25787 3.64318,-0.84059 7.56664,-1.26096 11.77039,-1.26111 5.53483,1.5e-4 10.64934,0.80586 15.34354,2.41713 4.76414,1.61157 8.86275,3.88858 12.29585,6.83103 3.43295,2.94273 6.13033,6.51588 8.09214,10.71946 1.96165,4.20383 2.94251,8.933 2.94259,14.18752 -8e-5,5.32481 -0.80579,9.91385 -2.41713,13.76714 -1.54144,3.85351 -3.5382,7.2515 -5.99029,10.194 -2.38217,2.87263 -5.00948,5.39485 -7.88195,7.56668 -2.8726,2.10194 -5.56997,4.0987 -8.09214,5.99028 -2.45222,1.89175 -4.5891,3.78342 -6.41066,5.67501 -1.75159,1.89174 -2.76749,3.9936 -3.04769,6.30556 l -1.89167,16.07919 -12.82131,0 -1.26111,-17.44539 0,-1.15602 c -3e-5,-2.94252 0.77065,-5.53481 2.31204,-7.77686 1.61139,-2.31196 3.60815,-4.44885 5.99028,-6.41066 2.45213,-2.03171 5.04441,-4.02847 7.77687,-5.99029 2.80242,-2.0317 5.3947,-4.23864 7.77686,-6.62084 2.45211,-2.45206 4.44887,-5.2195 5.99028,-8.30232 1.61136,-3.08262 2.41707,-6.72583 2.41714,-10.92965 -7e-5,-3.01254 -0.59559,-5.74495 -1.78658,-8.19723 -1.19111,-2.45204 -2.80253,-4.51886 -4.83427,-6.20047 -2.03184,-1.75142 -4.44897,-3.08259 -7.25139,-3.99353 -2.73246,-0.91067 -5.67505,-1.36607 -8.82779,-1.3662 -4.27381,1.3e-4 -7.95205,0.5256 -11.03474,1.57639 -3.01269,1.05106 -5.56994,2.20708 -7.67177,3.46806 -2.10187,1.26124 -3.81839,2.41726 -5.14954,3.46806 -1.26113,1.05105 -2.31206,1.57652 -3.15279,1.57639 -1.75155,1.3e-4 -3.11776,-0.80558 -4.09861,-2.41713 l -4.93936,-7.88196 m 20.59817,125.58582 c -2e-5,-1.82159 0.31526,-3.53811 0.94584,-5.14954 0.70059,-1.61141 1.61139,-3.01264 2.73241,-4.20371 1.19102,-1.19103 2.59226,-2.13687 4.20371,-2.83751 1.61139,-0.70059 3.3279,-1.0509 5.14954,-1.05092 1.82157,2e-5 3.53808,0.35033 5.14955,1.05092 1.61138,0.70064 3.01261,1.64648 4.20371,2.83751 1.191,1.19107 2.1018,2.5923 2.73241,4.20371 0.70057,1.61143 1.05087,3.32795 1.05093,5.14954 -6e-5,1.89168 -0.35036,3.64322 -1.05093,5.25464 -0.63061,1.54136 -1.54141,2.90757 -2.73241,4.09861 -1.1911,1.19106 -2.59233,2.10186 -4.20371,2.73241 -1.61147,0.70062 -3.32798,1.05093 -5.14955,1.05093 -1.82164,0 -3.53815,-0.35031 -5.14954,-1.05093 -1.61145,-0.63055 -3.01269,-1.54135 -4.20371,-2.73241 -1.12102,-1.19104 -2.03182,-2.55725 -2.73241,-4.09861 -0.63058,-1.61142 -0.94586,-3.36296 -0.94584,-5.25464"
           inkscape:connector-curvature="0" />
      </g>
    </g>
    <g
       id="g5484"
       transform="translate(-2.3223997,16.17242)">
      <path
         sodipodi:nodetypes="cccccc"
         inkscape:connector-curvature="0"
         id="path3057"
         d="m 458.96495,985.18976 -249.59525,0 18.88727,-240.9829 m 184.72991,39.73695 -13.1366,142.13129 59.11467,59.11466"
         style="fill:none;stroke:#000000;stroke-width:2;stroke-linecap:butt;stroke-linejoin:miter;stroke-miterlimit:4;stroke-opacity:1;stroke-dasharray:none;display:inline" />
      <path
         sodipodi:nodetypes="cc"
         inkscape:connector-curvature="0"
         id="path3108"
         d="m 321.03073,985.18976 0,-164.2074"
         style="fill:none;stroke:#000000;stroke-width:2;stroke-linecap:butt;stroke-linejoin:round;stroke-miterlimit:4;stroke-opacity:1;stroke-dasharray:none;display:inline" />
      <path
         sodipodi:nodetypes="cccccccccccc"
         inkscape:connector-curvature="0"
         id="path3065"
         d="m 443.77747,687.80399 2.05088,-24.46073 -52.54636,-6.5683 -45.97807,26.27319 -45.97808,-19.70489 -6.15265,39.79139 m -9.42321,61.04982 -4.12902,30.52471 59.11466,13.13659 45.97807,-32.84148 52.54637,19.70489 0.0131,-32.56877"
         style="fill:none;stroke:#000000;stroke-width:2;stroke-linecap:butt;stroke-linejoin:miter;stroke-miterlimit:4;stroke-opacity:1;stroke-dasharray:none" />
      <path
         sodipodi:nodetypes="cc"
         inkscape:connector-curvature="0"
         id="path3067"
         d="M 393.28199,659.6367 387.1225,775.03148"
         style="fill:none;stroke:#000000;stroke-width:2;stroke-linecap:butt;stroke-linejoin:miter;stroke-miterlimit:4;stroke-opacity:1;stroke-dasharray:none" />
      <path
         inkscape:connector-curvature="0"
         id="path3069"
         d="m 347.30392,683.04815 -6.5683,124.79762"
         style="fill:none;stroke:#000000;stroke-width:2;stroke-linecap:butt;stroke-linejoin:miter;stroke-miterlimit:4;stroke-opacity:1;stroke-dasharray:none" />
      <path
         transform="matrix(-4.1051849,0,0,4.1051849,1277.5388,-3270.9107)"
         d="m 185,898.36218 a 4,4 0 1 1 -8,0 4,4 0 1 1 8,0 z"
         sodipodi:ry="4"
         sodipodi:rx="4"
         sodipodi:cy="898.36218"
         sodipodi:cx="181"
         id="path3072"
         style="color:#000000;fill:#ffffff;fill-opacity:1;fill-rule:nonzero;stroke:#000000;stroke-width:0.48718876;stroke-linecap:round;stroke-linejoin:round;stroke-miterlimit:4;stroke-opacity:1;stroke-dasharray:none;stroke-dashoffset:0;marker:none;visibility:visible;display:inline;overflow:visible;enable-background:accumulate"
         sodipodi:type="arc" />
      <path
         sodipodi:type="arc"
         style="color:#000000;fill:#ffffff;fill-opacity:1;fill-rule:nonzero;stroke:#000000;stroke-width:0.81198126;stroke-linecap:round;stroke-linejoin:round;stroke-miterlimit:4;stroke-opacity:1;stroke-dasharray:none;stroke-dashoffset:0;marker:none;visibility:visible;display:inline;overflow:visible;enable-background:accumulate"
         id="path3074"
         sodipodi:cx="181"
         sodipodi:cy="898.36218"
         sodipodi:rx="4"
         sodipodi:ry="4"
         d="m 185,898.36218 a 4,4 0 1 1 -8,0 4,4 0 1 1 8,0 z"
         transform="matrix(-2.463111,0,0,2.463111,894.93559,-1789.1652)" />
      <path
         sodipodi:nodetypes="cc"
         inkscape:connector-curvature="0"
         id="path3060"
         d="m 419.55517,696.18474 c 12.34945,2.83901 26.45276,-7.63059 32.84148,-13.13659"
         style="fill:none;stroke:#000000;stroke-width:2;stroke-linecap:butt;stroke-linejoin:miter;stroke-miterlimit:4;stroke-opacity:1;stroke-dasharray:none" />
      <path
         style="fill:none;stroke:#000000;stroke-width:2;stroke-linecap:butt;stroke-linejoin:miter;stroke-miterlimit:4;stroke-opacity:1;stroke-dasharray:none"
         d="M 314.46244,768.43599 C 158.96756,755.72431 142.13846,651.05076 261.91607,571.38712 l 0,-26.27319 c -19.70489,-65.68296 -23.13617,-142.43737 45.97807,-144.50251 39.40978,0 86.33112,58.49042 98.52444,78.81955 l -39.40978,6.5683 0,72.25126 c 87.97175,34.97072 231.78144,157.91792 53.36399,208.14141 m -105.91035,-63.6389 c -30.24398,8.86444 -77.94531,-28.09937 -65.68296,-39.40978"
         id="path3062"
         inkscape:connector-curvature="0"
         sodipodi:nodetypes="cccccccccc" />
      <path
         sodipodi:nodetypes="cc"
         inkscape:connector-curvature="0"
         id="path3110"
         d="m 452.39665,715.88963 c -6.37565,9.143 -16.39427,11.00012 -26.27318,13.13659"
         style="fill:none;stroke:#000000;stroke-width:2;stroke-linecap:butt;stroke-linejoin:miter;stroke-miterlimit:4;stroke-opacity:1;stroke-dasharray:none" />
      <path
         sodipodi:nodetypes="cc"
         inkscape:connector-curvature="0"
         id="path3112"
         d="m 281.62096,729.02622 c 9.76824,5.72617 20.67095,8.04905 32.84148,6.56829"
         style="fill:none;stroke:#000000;stroke-width:2;stroke-linecap:butt;stroke-linejoin:miter;stroke-miterlimit:4;stroke-opacity:1;stroke-dasharray:none" />
      <path
         inkscape:connector-curvature="0"
         id="path3104"
         d="m 367.0088,525.40905 -26.27318,-6.5683 0,19.70489 -39.40978,-13.13659"
         style="fill:none;stroke:#000000;stroke-width:2;stroke-linecap:butt;stroke-linejoin:miter;stroke-miterlimit:4;stroke-opacity:1;stroke-dasharray:none;display:inline" />
      <path
         transform="matrix(-13.136592,0,0,6.5682959,3132.2614,-5500.0972)"
         d="m 213,908.36218 a 0.5,1 0 1 1 -1,0 0.5,1 0 1 1 1,0 z"
         sodipodi:ry="1"
         sodipodi:rx="0.5"
         sodipodi:cy="908.36218"
         sodipodi:cx="212.5"
         id="path3106"
         style="color:#000000;fill:#000000;stroke:none;stroke-width:1;marker:none;visibility:visible;display:inline;overflow:visible;enable-background:accumulate"
         sodipodi:type="arc" />
    </g>
  </g>
</svg>
