<?xml version="1.0" encoding="UTF-8" standalone="no"?>
<!-- Created with Inkscape (http://www.inkscape.org/) -->

<svg
   xmlns:dc="http://purl.org/dc/elements/1.1/"
   xmlns:cc="http://creativecommons.org/ns#"
   xmlns:rdf="http://www.w3.org/1999/02/22-rdf-syntax-ns#"
   xmlns:svg="http://www.w3.org/2000/svg"
   xmlns="http://www.w3.org/2000/svg"
   xmlns:sodipodi="http://sodipodi.sourceforge.net/DTD/sodipodi-0.dtd"
   xmlns:inkscape="http://www.inkscape.org/namespaces/inkscape"
   version="1.1"
   viewBox="0 0 959.50189 761.83046"
   id="svg2"
   inkscape:version="0.91 r13725"
   sodipodi:docname="publier-partout.svg"
   width="959.50189"
   height="761.83044">
  <defs
     id="defs234" />
  <sodipodi:namedview
     pagecolor="#ffffff"
     bordercolor="#666666"
     borderopacity="1"
     objecttolerance="10"
     gridtolerance="10"
     guidetolerance="10"
     inkscape:pageopacity="0"
     inkscape:pageshadow="2"
     inkscape:window-width="2560"
     inkscape:window-height="1327"
     id="namedview232"
     showgrid="false"
     fit-margin-top="15"
     fit-margin-right="15"
     fit-margin-bottom="15"
     fit-margin-left="15"
     inkscape:zoom="0.9121465"
     inkscape:cx="414.46382"
     inkscape:cy="427.17547"
     inkscape:window-x="0"
     inkscape:window-y="55"
     inkscape:window-maximized="1"
     inkscape:current-layer="svg2" />
  <metadata
     id="metadata4">
    <rdf:RDF>
      <cc:Work
         rdf:about="">
        <dc:format>image/svg+xml</dc:format>
        <dc:type
           rdf:resource="http://purl.org/dc/dcmitype/StillImage" />
        <dc:title></dc:title>
      </cc:Work>
    </rdf:RDF>
  </metadata>
  <g
     transform="translate(-6.0045488,-254.11391)"
     id="g6">
    <path
       d="M 267,638.9 128.1,778.1 117,768.9 256,629.6 Z"
       style="color:#000000;fill:#e5ff80;enable-background:accumulate"
       id="path8"
       inkscape:connector-curvature="0" />
    <rect
       style="color:#000000;fill:#e5ff80;enable-background:accumulate"
       transform="matrix(0.00103337,0.99999947,-0.99996241,0.00867032,0,0)"
       height="11.46"
       width="521.90002"
       y="-274.29999"
       x="374.5"
       id="rect10" />
    <path
       style="color:#000000;fill:#e5ff80;enable-background:accumulate"
       d="M 330,676 469.2,814.9 460,826 320.8,687.1 Z"
       id="path12"
       inkscape:connector-curvature="0" />
    <path
       d="m 149.9,501.8 54.47,54.84 -5.231,5.411 -54.47,-54.84 z"
       style="color:#000000;fill:#e5ff80;enable-background:accumulate"
       id="path14"
       inkscape:connector-curvature="0" />
    <path
       style="color:#000000;fill:#e5ff80;enable-background:accumulate"
       d="m 408.2,493 -59.19,58.52 -5.411,-5.231 59.19,-58.52 z"
       id="path16"
       inkscape:connector-curvature="0" />
    <path
       d="m 724.3,771.8 -180,79.33 -6.951,-12.62 180,-79.33 z"
       style="color:#000000;fill:#e5ff80;enable-background:accumulate"
       id="path18"
       inkscape:connector-curvature="0" />
  </g>
  <g
     transform="translate(-6.0045488,-286.47609)"
     id="g20">
    <path
       style="color:#000000;fill:#aad400;fill-rule:nonzero;stroke:#e5ff80;stroke-width:9.22619057;stroke-miterlimit:4;stroke-dasharray:none;enable-background:accumulate"
       d="m 333.9,277.8 c 0,38.22 -30.98,69.2 -69.2,69.2 -38.22,0 -69.2,-30.98 -69.2,-69.2 0,-38.22 30.98,-69.2 69.2,-69.2 38.22,0 69.2,30.98 69.2,69.2 z"
       transform="matrix(1.5174194,0,0,1.5174194,-132.51624,236.76434)"
       id="path22"
       inkscape:connector-curvature="0" />
    <g
       style="font-style:normal;font-variant:normal;font-weight:900;font-stretch:normal;font-size:32px;line-height:125%;font-family:Lato;text-align:end;letter-spacing:0px;word-spacing:0px;writing-mode:lr-tb;text-anchor:end;fill:#ffffff"
       transform="scale(1.0429804,0.95879079)"
       id="g24">
      <path
         style="fill:#ffffff"
         d="m 197.5,698.5 -4.192,0 c -0.4694,0 -0.8587,-0.1067 -1.168,-0.32 -0.2987,-0.224 -0.5067,-0.5067 -0.624,-0.848 l -1.376,-4.064 -8.864,0 -1.376,4.064 c -0.1067,0.2987 -0.3147,0.5707 -0.624,0.816 -0.3093,0.2347 -0.688,0.352 -1.136,0.352 l -4.224,0 9.024,-23.31 5.536,0 9.024,23.31 m -14.98,-8.912 6.368,0 -2.144,-6.384 c -0.1387,-0.4053 -0.304,-0.88 -0.496,-1.424 -0.1814,-0.5546 -0.3627,-1.152 -0.544,-1.792 -0.1707,0.6507 -0.3467,1.253 -0.528,1.808 -0.1814,0.5547 -0.352,1.035 -0.512,1.44 l -2.144,6.352"
         id="path26"
         inkscape:connector-curvature="0" />
      <path
         style="fill:#ffffff"
         d="m 209.5,685.5 c -0.128,0.2027 -0.2667,0.3467 -0.416,0.432 -0.1387,0.0853 -0.32,0.128 -0.544,0.128 -0.2347,1e-5 -0.4694,-0.048 -0.704,-0.144 -0.2347,-0.1067 -0.4907,-0.2187 -0.768,-0.336 -0.2667,-0.1173 -0.5707,-0.224 -0.912,-0.32 -0.3413,-0.1067 -0.7307,-0.16 -1.168,-0.16 -0.6293,10e-6 -1.115,0.1227 -1.456,0.368 -0.3307,0.2347 -0.496,0.5653 -0.496,0.992 -1e-5,0.3093 0.1067,0.5653 0.32,0.768 0.224,0.2027 0.5173,0.384 0.88,0.544 0.3627,0.1493 0.7733,0.2933 1.232,0.432 0.4587,0.1387 0.928,0.2933 1.408,0.464 0.48,0.1707 0.9493,0.3733 1.408,0.608 0.4586,0.224 0.8693,0.5067 1.232,0.848 0.3626,0.3307 0.6506,0.736 0.864,1.216 0.224,0.48 0.336,1.056 0.336,1.728 -2e-5,0.8213 -0.1494,1.579 -0.448,2.272 -0.2987,0.6933 -0.7467,1.291 -1.344,1.792 -0.5867,0.5013 -1.317,0.8907 -2.192,1.168 -0.864,0.2773 -1.861,0.416 -2.992,0.416 -0.5653,-10e-6 -1.131,-0.0533 -1.696,-0.16 -0.5653,-0.1067 -1.115,-0.2507 -1.648,-0.432 -0.5227,-0.1813 -1.008,-0.3947 -1.456,-0.64 -0.448,-0.256 -0.832,-0.528 -1.152,-0.816 l 1.152,-1.824 c 0.1387,-0.2133 0.304,-0.3787 0.496,-0.496 0.192,-0.128 0.4427,-0.192 0.752,-0.192 0.288,0 0.544,0.064 0.768,0.192 0.2347,0.128 0.4853,0.2667 0.752,0.416 0.2667,0.1493 0.576,0.288 0.928,0.416 0.3627,0.128 0.816,0.192 1.36,0.192 0.384,0 0.7093,-0.0373 0.976,-0.112 0.2667,-0.0853 0.48,-0.1973 0.64,-0.336 0.16,-0.1387 0.2773,-0.2933 0.352,-0.464 0.0747,-0.1707 0.112,-0.3467 0.112,-0.528 -1e-5,-0.3307 -0.112,-0.6027 -0.336,-0.816 -0.224,-0.2133 -0.5173,-0.3947 -0.88,-0.544 -0.3627,-0.16 -0.7787,-0.304 -1.248,-0.432 -0.4587,-0.1387 -0.928,-0.2933 -1.408,-0.464 -0.48,-0.1707 -0.9547,-0.3733 -1.424,-0.608 -0.4587,-0.2453 -0.8693,-0.5493 -1.232,-0.912 -0.3627,-0.3733 -0.656,-0.8267 -0.88,-1.36 -0.224,-0.5333 -0.336,-1.179 -0.336,-1.936 0,-0.704 0.1333,-1.371 0.4,-2 0.2773,-0.64 0.688,-1.2 1.232,-1.68 0.544,-0.48 1.227,-0.8587 2.048,-1.136 0.8213,-0.288 1.781,-0.432 2.88,-0.432 0.5973,1e-5 1.173,0.0534 1.728,0.16 0.5653,0.1067 1.093,0.256 1.584,0.448 0.4906,0.192 0.9386,0.4213 1.344,0.688 0.4053,0.256 0.7626,0.5387 1.072,0.848 l -1.12,1.744"
         id="path28"
         inkscape:connector-curvature="0" />
      <path
         style="fill:#ffffff"
         d="m 225.4,685.9 c -0.1494,0.1813 -0.2934,0.3253 -0.432,0.432 -0.1387,0.1067 -0.336,0.16 -0.592,0.16 -0.2454,1e-5 -0.4694,-0.0587 -0.672,-0.176 -0.192,-0.1173 -0.4107,-0.2453 -0.656,-0.384 -0.2454,-0.1493 -0.5334,-0.2827 -0.864,-0.4 -0.3307,-0.1173 -0.7414,-0.176 -1.232,-0.176 -0.608,10e-6 -1.136,0.112 -1.584,0.336 -0.4373,0.224 -0.8,0.544 -1.088,0.96 -0.288,0.416 -0.5013,0.928 -0.64,1.536 -0.1387,0.5973 -0.208,1.275 -0.208,2.032 -10e-6,1.589 0.304,2.811 0.912,3.664 0.6187,0.8533 1.467,1.28 2.544,1.28 0.576,0 1.029,-0.0693 1.36,-0.208 0.3413,-0.1493 0.6293,-0.3093 0.864,-0.48 0.2346,-0.1813 0.448,-0.3467 0.64,-0.496 0.2026,-0.1493 0.4533,-0.224 0.752,-0.224 0.3946,0 0.6933,0.144 0.896,0.432 l 1.44,1.776 c -0.512,0.5867 -1.051,1.067 -1.616,1.44 -0.5654,0.3627 -1.147,0.6507 -1.744,0.864 -0.5867,0.2027 -1.179,0.3413 -1.776,0.416 -0.5974,0.0853 -1.179,0.128 -1.744,0.128 -1.013,-10e-6 -1.984,-0.192 -2.912,-0.576 -0.9173,-0.384 -1.728,-0.9387 -2.432,-1.664 -0.6933,-0.736 -1.248,-1.637 -1.664,-2.704 -0.4053,-1.067 -0.608,-2.283 -0.608,-3.648 0,-1.195 0.176,-2.309 0.528,-3.344 0.3627,-1.045 0.8907,-1.947 1.584,-2.704 0.704,-0.768 1.568,-1.371 2.592,-1.808 1.035,-0.4373 2.229,-0.656 3.584,-0.656 1.301,10e-6 2.443,0.208 3.424,0.624 0.9813,0.416 1.867,1.024 2.656,1.824 L 225.4,685.9"
         id="path30"
         inkscape:connector-curvature="0" />
      <path
         style="fill:#ffffff"
         d="m 234.1,681.9 0,16.59 -4.96,0 0,-16.59 4.96,0 m 0.576,-4.544 c -10e-6,0.3947 -0.08,0.768 -0.24,1.12 -0.16,0.3414 -0.3787,0.6454 -0.656,0.912 -0.2773,0.256 -0.6027,0.464 -0.976,0.624 -0.3627,0.1494 -0.752,0.224 -1.168,0.224 -0.4053,10e-6 -0.784,-0.0747 -1.136,-0.224 -0.352,-0.16 -0.6667,-0.368 -0.944,-0.624 -0.2667,-0.2666 -0.48,-0.5706 -0.64,-0.912 -0.1493,-0.352 -0.224,-0.7253 -0.224,-1.12 0,-0.4053 0.0747,-0.784 0.224,-1.136 0.16,-0.352 0.3733,-0.6613 0.64,-0.928 0.2773,-0.2666 0.592,-0.4746 0.944,-0.624 0.352,-0.1493 0.7307,-0.224 1.136,-0.224 0.416,2e-5 0.8053,0.0747 1.168,0.224 0.3733,0.1494 0.6987,0.3574 0.976,0.624 0.2773,0.2667 0.496,0.576 0.656,0.928 0.16,0.352 0.24,0.7307 0.24,1.136"
         id="path32"
         inkscape:connector-curvature="0" />
      <path
         style="fill:#ffffff"
         d="m 243.2,681.9 0,16.59 -4.96,0 0,-16.59 4.96,0 m 0.576,-4.544 c -1e-5,0.3947 -0.08,0.768 -0.24,1.12 -0.16,0.3414 -0.3787,0.6454 -0.656,0.912 -0.2773,0.256 -0.6027,0.464 -0.976,0.624 -0.3627,0.1494 -0.752,0.224 -1.168,0.224 -0.4053,10e-6 -0.784,-0.0747 -1.136,-0.224 -0.352,-0.16 -0.6667,-0.368 -0.944,-0.624 -0.2667,-0.2666 -0.48,-0.5706 -0.64,-0.912 -0.1493,-0.352 -0.224,-0.7253 -0.224,-1.12 0,-0.4053 0.0747,-0.784 0.224,-1.136 0.16,-0.352 0.3733,-0.6613 0.64,-0.928 0.2773,-0.2666 0.592,-0.4746 0.944,-0.624 0.352,-0.1493 0.7307,-0.224 1.136,-0.224 0.416,2e-5 0.8053,0.0747 1.168,0.224 0.3733,0.1494 0.6987,0.3574 0.976,0.624 0.2773,0.2667 0.496,0.576 0.656,0.928 0.16,0.352 0.24,0.7307 0.24,1.136"
         id="path34"
         inkscape:connector-curvature="0" />
      <path
         style="fill:#ffffff"
         d="m 258.9,698.5 c -0.3094,0 -0.5707,-0.0693 -0.784,-0.208 -0.2027,-0.1387 -0.3467,-0.3467 -0.432,-0.624 l -0.384,-1.264 c -0.3307,0.352 -0.6774,0.672 -1.04,0.96 -0.3627,0.288 -0.7574,0.5387 -1.184,0.752 -0.416,0.2027 -0.8693,0.3573 -1.36,0.464 -0.48,0.1173 -1.003,0.176 -1.568,0.176 -0.864,-10e-6 -1.664,-0.192 -2.4,-0.576 -0.736,-0.384 -1.371,-0.9387 -1.904,-1.664 -0.5333,-0.7253 -0.9547,-1.611 -1.264,-2.656 -0.2987,-1.056 -0.448,-2.256 -0.448,-3.6 0,-1.237 0.1707,-2.384 0.512,-3.44 0.3413,-1.067 0.8213,-1.984 1.44,-2.752 0.6293,-0.7787 1.381,-1.387 2.256,-1.824 0.8747,-0.4373 1.84,-0.656 2.896,-0.656 0.8533,1e-5 1.573,0.128 2.16,0.384 0.5973,0.2453 1.136,0.5707 1.616,0.976 l 0,-8.4 4.96,0 0,23.95 -3.072,0 m -5.024,-3.552 c 0.3627,0 0.688,-0.032 0.976,-0.096 0.2986,-0.0747 0.5706,-0.176 0.816,-0.304 0.2453,-0.128 0.4746,-0.288 0.688,-0.48 0.224,-0.192 0.4426,-0.416 0.656,-0.672 l 0,-7.04 c -0.384,-0.416 -0.7947,-0.704 -1.232,-0.864 -0.4267,-0.1707 -0.88,-0.256 -1.36,-0.256 -0.4587,10e-6 -0.88,0.0907 -1.264,0.272 -0.384,0.1813 -0.72,0.4747 -1.008,0.88 -0.2773,0.3947 -0.496,0.912 -0.656,1.552 -0.16,0.64 -0.24,1.413 -0.24,2.32 -1e-5,0.8747 0.064,1.611 0.192,2.208 0.128,0.5973 0.304,1.083 0.528,1.456 0.2347,0.3627 0.512,0.624 0.832,0.784 0.32,0.16 0.6773,0.24 1.072,0.24"
         id="path36"
         inkscape:connector-curvature="0" />
      <path
         style="fill:#ffffff"
         d="m 273.2,681.7 c 1.259,10e-6 2.405,0.1974 3.44,0.592 1.035,0.3947 1.92,0.96 2.656,1.696 0.7466,0.736 1.323,1.632 1.728,2.688 0.416,1.045 0.624,2.224 0.624,3.536 -2e-5,1.323 -0.208,2.517 -0.624,3.584 -0.4054,1.056 -0.9814,1.957 -1.728,2.704 -0.736,0.736 -1.621,1.307 -2.656,1.712 -1.035,0.3947 -2.181,0.592 -3.44,0.592 -1.269,-10e-6 -2.427,-0.1973 -3.472,-0.592 -1.035,-0.4053 -1.931,-0.976 -2.688,-1.712 -0.7467,-0.7467 -1.328,-1.648 -1.744,-2.704 -0.4053,-1.067 -0.608,-2.261 -0.608,-3.584 0,-1.312 0.2027,-2.491 0.608,-3.536 0.416,-1.056 0.9973,-1.952 1.744,-2.688 0.7573,-0.736 1.653,-1.301 2.688,-1.696 1.045,-0.3946 2.203,-0.592 3.472,-0.592 m 0,13.42 c 1.141,0 1.979,-0.4 2.512,-1.2 0.544,-0.8107 0.816,-2.037 0.816,-3.68 -2e-5,-1.643 -0.272,-2.864 -0.816,-3.664 -0.5334,-0.8 -1.371,-1.2 -2.512,-1.2 -1.173,10e-6 -2.032,0.4 -2.576,1.2 -0.544,0.8 -0.816,2.021 -0.816,3.664 -10e-6,1.643 0.272,2.869 0.816,3.68 0.544,0.8 1.403,1.2 2.576,1.2"
         id="path38"
         inkscape:connector-curvature="0" />
      <path
         style="fill:#ffffff"
         d="m 296.3,685.9 c -0.1494,0.1813 -0.2934,0.3253 -0.432,0.432 -0.1387,0.1067 -0.336,0.16 -0.592,0.16 -0.2454,1e-5 -0.4694,-0.0587 -0.672,-0.176 -0.192,-0.1173 -0.4107,-0.2453 -0.656,-0.384 -0.2454,-0.1493 -0.5334,-0.2827 -0.864,-0.4 -0.3307,-0.1173 -0.7414,-0.176 -1.232,-0.176 -0.608,10e-6 -1.136,0.112 -1.584,0.336 -0.4373,0.224 -0.8,0.544 -1.088,0.96 -0.288,0.416 -0.5013,0.928 -0.64,1.536 -0.1387,0.5973 -0.208,1.275 -0.208,2.032 -10e-6,1.589 0.304,2.811 0.912,3.664 0.6187,0.8533 1.467,1.28 2.544,1.28 0.576,0 1.029,-0.0693 1.36,-0.208 0.3413,-0.1493 0.6293,-0.3093 0.864,-0.48 0.2346,-0.1813 0.448,-0.3467 0.64,-0.496 0.2026,-0.1493 0.4533,-0.224 0.752,-0.224 0.3946,0 0.6933,0.144 0.896,0.432 l 1.44,1.776 c -0.512,0.5867 -1.051,1.067 -1.616,1.44 -0.5654,0.3627 -1.147,0.6507 -1.744,0.864 -0.5867,0.2027 -1.179,0.3413 -1.776,0.416 -0.5974,0.0853 -1.179,0.128 -1.744,0.128 -1.013,-10e-6 -1.984,-0.192 -2.912,-0.576 -0.9173,-0.384 -1.728,-0.9387 -2.432,-1.664 -0.6933,-0.736 -1.248,-1.637 -1.664,-2.704 -0.4053,-1.067 -0.608,-2.283 -0.608,-3.648 0,-1.195 0.176,-2.309 0.528,-3.344 0.3627,-1.045 0.8907,-1.947 1.584,-2.704 0.704,-0.768 1.568,-1.371 2.592,-1.808 1.035,-0.4373 2.229,-0.656 3.584,-0.656 1.301,10e-6 2.443,0.208 3.424,0.624 0.9813,0.416 1.867,1.024 2.656,1.824 L 296.3,685.9"
         id="path40"
         inkscape:connector-curvature="0" />
      <path
         style="fill:#ffffff"
         d="m 305.7,698.8 c -0.7893,-10e-6 -1.488,-0.112 -2.096,-0.336 -0.5973,-0.2347 -1.104,-0.56 -1.52,-0.976 -0.4053,-0.4267 -0.7147,-0.9387 -0.928,-1.536 -0.2133,-0.5973 -0.32,-1.264 -0.32,-2 l 0,-8.576 -1.408,0 c -0.256,10e-6 -0.4747,-0.08 -0.656,-0.24 -0.1813,-0.1707 -0.272,-0.416 -0.272,-0.736 l 0,-1.936 2.64,-0.512 0.976,-4.048 c 0.128,-0.512 0.4907,-0.768 1.088,-0.768 l 2.592,0 0,4.848 4.032,0 0,3.392 -4.032,0 0,8.24 c -10e-6,0.384 0.0907,0.704 0.272,0.96 0.192,0.2453 0.464,0.368 0.816,0.368 0.1813,0 0.3306,-0.016 0.448,-0.048 0.128,-0.0427 0.2346,-0.0853 0.32,-0.128 0.096,-0.0533 0.1813,-0.096 0.256,-0.128 0.0853,-0.0427 0.1813,-0.064 0.288,-0.064 0.1493,0 0.2666,0.0373 0.352,0.112 0.096,0.064 0.192,0.1707 0.288,0.32 l 1.504,2.352 c -0.64,0.48 -1.36,0.8427 -2.16,1.088 -0.8,0.2347 -1.627,0.352 -2.48,0.352"
         id="path42"
         inkscape:connector-curvature="0" />
      <path
         style="fill:#ffffff"
         d="m 320.1,681.7 c 1.259,10e-6 2.405,0.1974 3.44,0.592 1.035,0.3947 1.92,0.96 2.656,1.696 0.7466,0.736 1.323,1.632 1.728,2.688 0.416,1.045 0.624,2.224 0.624,3.536 -2e-5,1.323 -0.208,2.517 -0.624,3.584 -0.4054,1.056 -0.9814,1.957 -1.728,2.704 -0.736,0.736 -1.621,1.307 -2.656,1.712 -1.035,0.3947 -2.181,0.592 -3.44,0.592 -1.269,-10e-6 -2.427,-0.1973 -3.472,-0.592 -1.035,-0.4053 -1.931,-0.976 -2.688,-1.712 -0.7467,-0.7467 -1.328,-1.648 -1.744,-2.704 -0.4053,-1.067 -0.608,-2.261 -0.608,-3.584 0,-1.312 0.2027,-2.491 0.608,-3.536 0.416,-1.056 0.9973,-1.952 1.744,-2.688 0.7573,-0.736 1.653,-1.301 2.688,-1.696 1.045,-0.3946 2.203,-0.592 3.472,-0.592 m 0,13.42 c 1.141,0 1.979,-0.4 2.512,-1.2 0.544,-0.8107 0.816,-2.037 0.816,-3.68 -2e-5,-1.643 -0.272,-2.864 -0.816,-3.664 -0.5334,-0.8 -1.371,-1.2 -2.512,-1.2 -1.173,10e-6 -2.032,0.4 -2.576,1.2 -0.544,0.8 -0.816,2.021 -0.816,3.664 -1e-5,1.643 0.272,2.869 0.816,3.68 0.544,0.8 1.403,1.2 2.576,1.2"
         id="path44"
         inkscape:connector-curvature="0" />
      <path
         style="fill:#ffffff"
         d="m 331.3,698.5 0,-16.59 2.944,0 c 0.2453,1e-5 0.448,0.0213 0.608,0.064 0.1707,0.0427 0.3093,0.112 0.416,0.208 0.1173,0.0853 0.2027,0.2027 0.256,0.352 0.064,0.1493 0.1173,0.3307 0.16,0.544 l 0.272,1.552 c 0.608,-0.9387 1.291,-1.68 2.048,-2.224 0.7573,-0.544 1.584,-0.816 2.48,-0.816 0.7573,10e-6 1.365,0.1814 1.824,0.544 l -0.64,3.648 c -0.0427,0.224 -0.128,0.384 -0.256,0.48 -0.128,0.0853 -0.2987,0.128 -0.512,0.128 -0.1814,10e-6 -0.3947,-0.0213 -0.64,-0.064 -0.2454,-0.0533 -0.5547,-0.08 -0.928,-0.08 -1.301,10e-6 -2.325,0.6933 -3.072,2.08 l 0,10.18 -4.96,0"
         id="path46"
         inkscape:connector-curvature="0" />
    </g>
  </g>
  <g
     style="display:none"
     transform="translate(-6.0045488,-286.47609)"
     id="g48">
    <path
       style="color:#000000;fill:#b3b3b3;fill-rule:nonzero;stroke:#e5ff80;stroke-width:10.37946415;stroke-miterlimit:4;stroke-dasharray:none;enable-background:accumulate"
       d="m 333.9,277.8 c 0,38.22 -30.98,69.2 -69.2,69.2 -38.22,0 -69.2,-30.98 -69.2,-69.2 0,-38.22 30.98,-69.2 69.2,-69.2 38.22,0 69.2,30.98 69.2,69.2 z"
       transform="matrix(1.1561291,0,0,1.1561291,443.00648,469.98759)"
       id="path50"
       inkscape:connector-curvature="0" />
    <text
       style="font-style:normal;font-variant:normal;font-weight:bold;font-stretch:normal;font-size:24px;line-height:125%;font-family:Lato;text-align:end;letter-spacing:0px;word-spacing:0px;writing-mode:lr-tb;text-anchor:end;fill:#000000"
       xml:space="preserve"
       transform="scale(1.0429804,0.95879079)"
       y="833.93506"
       x="779.54132"
       id="text52"
       sodipodi:linespacing="125%"><tspan
         x="779.54132"
         style="font-weight:bold;font-size:24px;fill:#ffffff"
         y="833.93506"
         id="tspan54">Confluence</tspan></text>
  </g>
  <g
     transform="translate(-6.0045488,-286.47609)"
     id="g56">
    <path
       style="color:#000000;fill:#b3b3b3;fill-rule:nonzero;stroke:#e5ff80;stroke-width:10.37946415;stroke-miterlimit:4;stroke-dasharray:none;enable-background:accumulate"
       d="m 333.9,277.8 c 0,38.22 -30.98,69.2 -69.2,69.2 -38.22,0 -69.2,-30.98 -69.2,-69.2 0,-38.22 30.98,-69.2 69.2,-69.2 38.22,0 69.2,30.98 69.2,69.2 z"
       transform="matrix(1.1561291,0,0,1.1561291,443.00648,469.98759)"
       id="path58"
       inkscape:connector-curvature="0" />
    <g
       style="font-style:normal;font-variant:normal;font-weight:bold;font-stretch:normal;font-size:24px;line-height:125%;font-family:Lato;text-align:end;letter-spacing:0px;word-spacing:0px;writing-mode:lr-tb;text-anchor:end;fill:#ffffff"
       transform="scale(1.0429804,0.95879079)"
       id="g60">
      <path
         style="fill:#ffffff"
         d="m 704.2,830.5 c 0.2053,0 0.3826,0.0793 0.532,0.238 l 1.484,1.61 c -0.8214,1.017 -1.834,1.797 -3.038,2.338 -1.195,0.5413 -2.632,0.812 -4.312,0.812 -1.503,0 -2.856,-0.2567 -4.06,-0.77 -1.195,-0.5133 -2.217,-1.227 -3.066,-2.142 -0.8493,-0.9147 -1.503,-2.007 -1.96,-3.276 -0.448,-1.269 -0.672,-2.655 -0.672,-4.158 0,-1.521 0.252,-2.912 0.756,-4.172 0.504,-1.269 1.213,-2.361 2.128,-3.276 0.9147,-0.9146 2.007,-1.624 3.276,-2.128 1.279,-0.5133 2.688,-0.77 4.228,-0.77 1.503,2e-5 2.814,0.2427 3.934,0.728 1.129,0.476 2.095,1.111 2.898,1.904 l -1.26,1.75 c -0.0747,0.112 -0.1727,0.21 -0.294,0.294 -0.112,0.084 -0.2707,0.126 -0.476,0.126 -0.2147,1e-5 -0.434,-0.084 -0.658,-0.252 -0.224,-0.168 -0.5087,-0.35 -0.854,-0.546 -0.3454,-0.196 -0.784,-0.378 -1.316,-0.546 -0.5227,-0.168 -1.19,-0.252 -2.002,-0.252 -0.952,2e-5 -1.829,0.168 -2.632,0.504 -0.7933,0.3267 -1.479,0.798 -2.058,1.414 -0.5693,0.616 -1.017,1.367 -1.344,2.254 -0.3173,0.8773 -0.476,1.867 -0.476,2.968 -10e-6,1.139 0.1587,2.151 0.476,3.038 0.3267,0.8867 0.7653,1.633 1.316,2.24 0.5507,0.6067 1.199,1.073 1.946,1.4 0.7466,0.3173 1.549,0.476 2.408,0.476 0.5133,0 0.9753,-0.028 1.386,-0.084 0.42,-0.056 0.8026,-0.1447 1.148,-0.266 0.3546,-0.1213 0.686,-0.2753 0.994,-0.462 0.3173,-0.196 0.63,-0.434 0.938,-0.714 0.0933,-0.084 0.1913,-0.1493 0.294,-0.196 0.1026,-0.056 0.2146,-0.084 0.336,-0.084"
         id="path62"
         inkscape:connector-curvature="0" />
      <path
         style="fill:#ffffff"
         d="m 719.2,826.9 c 0.1586,0.2987 0.3033,0.6113 0.434,0.938 0.14,0.3173 0.2753,0.6393 0.406,0.966 0.1306,-0.336 0.266,-0.6673 0.406,-0.994 0.14,-0.3267 0.2893,-0.6393 0.448,-0.938 l 5.992,-11.21 c 0.0747,-0.14 0.1493,-0.252 0.224,-0.336 0.084,-0.084 0.1726,-0.1446 0.266,-0.182 0.1026,-0.0373 0.2146,-0.0607 0.336,-0.07 0.1213,-0.009 0.266,-0.014 0.434,-0.014 l 2.842,0 0,20.24 -3.318,0 0,-13.08 c -2e-5,-0.2427 0.005,-0.5086 0.014,-0.798 0.0186,-0.2893 0.042,-0.5833 0.07,-0.882 l -6.118,11.48 c -0.14,0.2613 -0.322,0.4667 -0.546,0.616 -0.224,0.14 -0.4854,0.21 -0.784,0.21 l -0.518,0 c -0.2987,0 -0.56,-0.07 -0.784,-0.21 -0.224,-0.1493 -0.406,-0.3547 -0.546,-0.616 l -6.202,-11.52 c 0.0373,0.308 0.0607,0.6114 0.07,0.91 0.0187,0.2894 0.028,0.56 0.028,0.812 l 0,13.08 -3.318,0 0,-20.24 2.842,0 c 0.168,2e-5 0.3127,0.005 0.434,0.014 0.1213,0.009 0.2287,0.0327 0.322,0.07 0.1027,0.0373 0.196,0.098 0.28,0.182 0.084,0.084 0.1633,0.196 0.238,0.336 l 6.048,11.24"
         id="path64"
         inkscape:connector-curvature="0" />
      <path
         style="fill:#ffffff"
         d="m 746,818.7 c -0.1027,0.2054 -0.224,0.35 -0.364,0.434 -0.1307,0.084 -0.2894,0.126 -0.476,0.126 -0.1867,10e-6 -0.3967,-0.07 -0.63,-0.21 -0.2334,-0.1493 -0.5087,-0.3126 -0.826,-0.49 -0.3173,-0.1773 -0.6907,-0.336 -1.12,-0.476 -0.42,-0.1493 -0.9193,-0.224 -1.498,-0.224 -0.5227,2e-5 -0.98,0.0654 -1.372,0.196 -0.3827,0.1214 -0.7093,0.294 -0.98,0.518 -0.2613,0.224 -0.4573,0.4947 -0.588,0.812 -0.1307,0.308 -0.196,0.6487 -0.196,1.022 -1e-5,0.476 0.1307,0.8727 0.392,1.19 0.2707,0.3173 0.6253,0.588 1.064,0.812 0.4387,0.224 0.938,0.4247 1.498,0.602 0.56,0.1773 1.129,0.3687 1.708,0.574 0.588,0.196 1.162,0.4293 1.722,0.7 0.56,0.2613 1.059,0.5973 1.498,1.008 0.4386,0.4013 0.7886,0.896 1.05,1.484 0.2706,0.588 0.406,1.302 0.406,2.142 -10e-6,0.9147 -0.1587,1.773 -0.476,2.576 -0.308,0.7933 -0.7654,1.489 -1.372,2.086 -0.5974,0.588 -1.33,1.055 -2.198,1.4 -0.868,0.336 -1.862,0.504 -2.982,0.504 -0.644,0 -1.279,-0.0653 -1.904,-0.196 -0.6253,-0.1213 -1.227,-0.2987 -1.806,-0.532 -0.5693,-0.2333 -1.106,-0.5133 -1.61,-0.84 -0.4947,-0.3267 -0.938,-0.6907 -1.33,-1.092 l 1.092,-1.806 c 0.1027,-0.1307 0.224,-0.238 0.364,-0.322 0.1493,-0.0933 0.3127,-0.14 0.49,-0.14 0.2333,0 0.4853,0.098 0.756,0.294 0.2707,0.1867 0.588,0.3967 0.952,0.63 0.3733,0.2333 0.8073,0.448 1.302,0.644 0.504,0.1867 1.106,0.28 1.806,0.28 1.073,0 1.904,-0.252 2.492,-0.756 0.588,-0.5133 0.882,-1.246 0.882,-2.198 -10e-6,-0.532 -0.1353,-0.966 -0.406,-1.302 -0.2613,-0.336 -0.6113,-0.616 -1.05,-0.84 -0.4387,-0.2333 -0.938,-0.4293 -1.498,-0.588 -0.56,-0.1587 -1.129,-0.3313 -1.708,-0.518 -0.5787,-0.1867 -1.148,-0.4107 -1.708,-0.672 -0.56,-0.2613 -1.059,-0.602 -1.498,-1.022 -0.4387,-0.42 -0.7933,-0.9427 -1.064,-1.568 -0.2613,-0.6347 -0.392,-1.414 -0.392,-2.338 0,-0.7373 0.1447,-1.456 0.434,-2.156 0.2987,-0.7 0.728,-1.321 1.288,-1.862 0.5693,-0.5413 1.265,-0.9753 2.086,-1.302 0.8213,-0.3266 1.759,-0.49 2.814,-0.49 1.195,2e-5 2.296,0.1867 3.304,0.56 1.008,0.3734 1.867,0.896 2.576,1.568 L 746,818.7"
         id="path66"
         inkscape:connector-curvature="0" />
    </g>
  </g>
  <g
     transform="translate(-6.0045488,-286.47609)"
     id="g68">
    <path
       style="color:#000000;fill:#ffffff;fill-rule:nonzero;stroke:#e5ff80;stroke-width:6.58482122;stroke-miterlimit:4;stroke-dasharray:none;enable-background:accumulate"
       d="m 199.1,175.1 c 0,14.55 -11.79,26.34 -26.34,26.34 -14.55,0 -26.34,-11.79 -26.34,-26.34 0,-14.55 11.79,-26.34 26.34,-26.34 14.55,0 26.34,11.79 26.34,26.34 z"
       transform="matrix(2.1261018,0,0,2.1261018,126.67055,508.97537)"
       id="path70"
       inkscape:connector-curvature="0" />
    <g
       style="font-style:normal;font-variant:normal;font-weight:bold;font-stretch:normal;font-size:28px;line-height:125%;font-family:Lato;text-align:end;letter-spacing:0px;word-spacing:0px;writing-mode:lr-tb;text-anchor:end;fill:#999999"
       transform="scale(1.0429804,0.95879079)"
       id="g72">
      <path
         style="fill:#999999"
         d="m 452.8,929.3 -3.794,0 0,-8.848 -9.492,0 0,8.848 -3.794,0 0,-20.24 3.794,0 0,8.708 9.492,0 0,-8.708 3.794,0 0,20.24"
         id="path74"
         inkscape:connector-curvature="0" />
      <path
         style="fill:#999999"
         d="m 471.2,909.1 0,3.094 -6.09,0 0,17.15 -3.766,0 0,-17.15 -6.118,0 0,-3.094 15.97,0"
         id="path76"
         inkscape:connector-curvature="0" />
      <path
         style="fill:#999999"
         d="m 483.8,920.9 c 0.1586,0.2987 0.3033,0.6113 0.434,0.938 0.14,0.3173 0.2753,0.6393 0.406,0.966 0.1306,-0.336 0.266,-0.6673 0.406,-0.994 0.14,-0.3267 0.2893,-0.6393 0.448,-0.938 l 5.992,-11.21 c 0.0746,-0.14 0.1493,-0.252 0.224,-0.336 0.084,-0.084 0.1726,-0.1446 0.266,-0.182 0.1026,-0.0373 0.2146,-0.0607 0.336,-0.07 0.1213,-0.009 0.266,-0.014 0.434,-0.014 l 2.842,0 0,20.24 -3.318,0 0,-13.08 c -2e-5,-0.2427 0.005,-0.5087 0.014,-0.798 0.0186,-0.2893 0.042,-0.5833 0.07,-0.882 l -6.118,11.48 c -0.14,0.2613 -0.322,0.4667 -0.546,0.616 -0.224,0.14 -0.4854,0.21 -0.784,0.21 l -0.518,0 c -0.2987,0 -0.56,-0.07 -0.784,-0.21 -0.224,-0.1493 -0.406,-0.3547 -0.546,-0.616 l -6.202,-11.52 c 0.0373,0.308 0.0607,0.6113 0.07,0.91 0.0187,0.2893 0.028,0.56 0.028,0.812 l 0,13.08 -3.318,0 0,-20.24 2.842,0 c 0.168,2e-5 0.3127,0.005 0.434,0.014 0.1213,0.009 0.2287,0.0327 0.322,0.07 0.1027,0.0373 0.196,0.098 0.28,0.182 0.084,0.084 0.1633,0.196 0.238,0.336 l 6.048,11.24"
         id="path78"
         inkscape:connector-curvature="0" />
      <path
         style="fill:#999999"
         d="m 503.4,926.2 8.106,0 0,3.108 -11.87,0 0,-20.24 3.766,0 0,17.14"
         id="path80"
         inkscape:connector-curvature="0" />
    </g>
  </g>
  <g
     transform="translate(-6.0045488,-286.47609)"
     id="g82">
    <path
       style="color:#000000;fill:#ffffff;fill-rule:nonzero;stroke:#e5ff80;stroke-width:6.3214283;stroke-miterlimit:4;stroke-dasharray:none;enable-background:accumulate"
       d="m 199.1,175.1 c 0,14.55 -11.79,26.34 -26.34,26.34 -14.55,0 -26.34,-11.79 -26.34,-26.34 0,-14.55 11.79,-26.34 26.34,-26.34 14.55,0 26.34,11.79 26.34,26.34 z"
       transform="matrix(1.8983051,0,0,1.8983051,-58.77264,644.91194)"
       id="path84"
       inkscape:connector-curvature="0" />
    <g
       style="font-style:normal;font-variant:normal;font-weight:bold;font-stretch:normal;font-size:20px;line-height:125%;font-family:Lato;text-align:end;letter-spacing:0px;word-spacing:0px;writing-mode:lr-tb;text-anchor:end;fill:#999999"
       transform="scale(1.0429804,0.95879079)"
       id="g86">
      <path
         style="fill:#999999"
         d="m 242.5,1022 0,5.09 -2.69,0 0,-14.46 4.71,0 c 0.9667,0 1.803,0.1134 2.51,0.34 0.7067,0.2267 1.29,0.5434 1.75,0.95 0.46,0.4067 0.8,0.8934 1.02,1.46 0.22,0.5667 0.33,1.187 0.33,1.86 -1e-5,0.7 -0.1167,1.343 -0.35,1.93 -0.2334,0.58 -0.5834,1.08 -1.05,1.5 -0.4667,0.42 -1.05,0.7467 -1.75,0.98 -0.7,0.2333 -1.52,0.35 -2.46,0.35 l -2.02,0 m 0,-2.1 2.02,0 c 0.4933,0 0.9233,-0.06 1.29,-0.18 0.3667,-0.1266 0.67,-0.3033 0.91,-0.53 0.24,-0.2333 0.42,-0.5133 0.54,-0.84 0.12,-0.3333 0.18,-0.7033 0.18,-1.11 -1e-5,-0.3866 -0.06,-0.7366 -0.18,-1.05 -0.12,-0.3133 -0.3,-0.58 -0.54,-0.8 -0.24,-0.22 -0.5433,-0.3866 -0.91,-0.5 -0.3667,-0.12 -0.7967,-0.18 -1.29,-0.18 l -2.02,0 0,5.19"
         id="path88"
         inkscape:connector-curvature="0" />
      <path
         style="fill:#999999"
         d="m 265.1,1019 c -2e-5,1.06 -0.1767,2.033 -0.53,2.92 -0.3534,0.8867 -0.85,1.65 -1.49,2.29 -0.64,0.64 -1.41,1.137 -2.31,1.49 -0.9,0.3533 -1.897,0.53 -2.99,0.53 l -5.52,0 0,-14.46 5.52,0 c 1.093,0 2.09,0.18 2.99,0.54 0.9,0.3534 1.67,0.85 2.31,1.49 0.64,0.6334 1.137,1.393 1.49,2.28 0.3533,0.8867 0.53,1.86 0.53,2.92 m -2.75,0 c -1e-5,-0.7933 -0.1067,-1.503 -0.32,-2.13 -0.2134,-0.6333 -0.5167,-1.167 -0.91,-1.6 -0.3933,-0.44 -0.8733,-0.7766 -1.44,-1.01 -0.56,-0.2333 -1.193,-0.35 -1.9,-0.35 l -2.81,0 0,10.18 2.81,0 c 0.7067,0 1.34,-0.1167 1.9,-0.35 0.5667,-0.2333 1.047,-0.5667 1.44,-1 0.3933,-0.44 0.6966,-0.9733 0.91,-1.6 0.2133,-0.6333 0.32,-1.347 0.32,-2.14"
         id="path90"
         inkscape:connector-curvature="0" />
      <path
         style="fill:#999999"
         d="m 276.3,1012 0,2.14 -6.41,0 0,4.28 5.41,0 0,2.15 -5.41,0 0,5.89 -2.71,0 0,-14.46 9.12,0"
         id="path92"
         inkscape:connector-curvature="0" />
    </g>
  </g>
  <g
     transform="translate(-6.0045488,-286.47609)"
     id="g94">
    <path
       style="color:#000000;fill:#ffffff;stroke:#e5ff80;stroke-width:6.3214283;stroke-miterlimit:4;stroke-dasharray:none;enable-background:accumulate"
       d="m 199.1,175.1 c 0,14.55 -11.79,26.34 -26.34,26.34 -14.55,0 -26.34,-11.79 -26.34,-26.34 0,-14.55 11.79,-26.34 26.34,-26.34 14.55,0 26.34,11.79 26.34,26.34 z"
       transform="matrix(1.8983051,0,0,1.8983051,-58.77264,25.084222)"
       id="path96"
       inkscape:connector-curvature="0" />
    <g
       style="font-style:normal;font-variant:normal;font-weight:normal;font-stretch:normal;font-size:20px;line-height:125%;font-family:Lato;text-align:end;letter-spacing:0px;word-spacing:0px;writing-mode:lr-tb;text-anchor:end;fill:#999999"
       transform="scale(1.0429804,0.95879079)"
       id="g98">
      <path
         style="fill:#999999"
         d="m 242.6,365.6 0,2.14 -6.41,0 0,4.01 5.05,0 0,2.07 -5.05,0 0,4.09 6.41,0 0,2.15 -9.12,0 0,-14.46 9.12,0"
         id="path100"
         inkscape:connector-curvature="0" />
      <path
         style="fill:#999999"
         d="m 247.7,375 0,5.09 -2.69,0 0,-14.46 4.71,0 c 0.9667,2e-5 1.803,0.1134 2.51,0.34 0.7067,0.2267 1.29,0.5434 1.75,0.95 0.46,0.4067 0.8,0.8934 1.02,1.46 0.22,0.5667 0.33,1.187 0.33,1.86 -1e-5,0.7 -0.1167,1.343 -0.35,1.93 -0.2333,0.58 -0.5833,1.08 -1.05,1.5 -0.4667,0.42 -1.05,0.7467 -1.75,0.98 -0.7,0.2333 -1.52,0.35 -2.46,0.35 l -2.02,0 m 0,-2.1 2.02,0 c 0.4933,1e-5 0.9233,-0.06 1.29,-0.18 0.3667,-0.1267 0.67,-0.3033 0.91,-0.53 0.24,-0.2333 0.42,-0.5133 0.54,-0.84 0.12,-0.3333 0.18,-0.7033 0.18,-1.11 -10e-6,-0.3866 -0.06,-0.7366 -0.18,-1.05 -0.12,-0.3133 -0.3,-0.58 -0.54,-0.8 -0.24,-0.22 -0.5433,-0.3866 -0.91,-0.5 -0.3667,-0.12 -0.7967,-0.18 -1.29,-0.18 l -2.02,0 0,5.19"
         id="path102"
         inkscape:connector-curvature="0" />
      <path
         style="fill:#999999"
         d="m 263.2,377.9 c 0.52,0 0.9833,-0.0867 1.39,-0.26 0.4133,-0.1733 0.76,-0.4167 1.04,-0.73 0.2867,-0.3133 0.5033,-0.6933 0.65,-1.14 0.1533,-0.4467 0.23,-0.9467 0.23,-1.5 l 0,-8.66 2.69,0 0,8.66 c -10e-6,0.86 -0.14,1.657 -0.42,2.39 -0.2733,0.7267 -0.67,1.357 -1.19,1.89 -0.52,0.5267 -1.15,0.94 -1.89,1.24 -0.74,0.2933 -1.573,0.44 -2.5,0.44 -0.9267,0 -1.76,-0.1467 -2.5,-0.44 -0.74,-0.3 -1.37,-0.7133 -1.89,-1.24 -0.5133,-0.5333 -0.91,-1.163 -1.19,-1.89 -0.2733,-0.7333 -0.41,-1.53 -0.41,-2.39 l 0,-8.66 2.69,0 0,8.65 c 0,0.5533 0.0733,1.053 0.22,1.5 0.1533,0.4467 0.37,0.83 0.65,1.15 0.28,0.3133 0.6233,0.5567 1.03,0.73 0.4133,0.1733 0.88,0.26 1.4,0.26"
         id="path104"
         inkscape:connector-curvature="0" />
      <path
         style="fill:#999999"
         d="m 272,380.1 0,-14.46 4.99,0 c 0.9467,2e-5 1.753,0.09 2.42,0.27 0.6733,0.18 1.223,0.4367 1.65,0.77 0.4333,0.3334 0.75,0.7367 0.95,1.21 0.2,0.4734 0.3,1.007 0.3,1.6 -10e-6,0.34 -0.05,0.6667 -0.15,0.98 -0.1,0.3067 -0.2567,0.5967 -0.47,0.87 -0.2067,0.2667 -0.4733,0.51 -0.8,0.73 -0.32,0.22 -0.7033,0.4067 -1.15,0.56 1.987,0.4467 2.98,1.52 2.98,3.22 -1e-5,0.6133 -0.1167,1.18 -0.35,1.7 -0.2333,0.52 -0.5733,0.97 -1.02,1.35 -0.4467,0.3733 -0.9967,0.6667 -1.65,0.88 -0.6533,0.2133 -1.4,0.32 -2.24,0.32 l -5.46,0 m 2.69,-6.34 0,4.24 2.73,0 c 0.5,0 0.9167,-0.06 1.25,-0.18 0.34,-0.12 0.61,-0.28 0.81,-0.48 0.2067,-0.2 0.3533,-0.4333 0.44,-0.7 0.0933,-0.2667 0.14,-0.55 0.14,-0.85 0,-0.3133 -0.05,-0.5933 -0.15,-0.84 -0.1,-0.2533 -0.2567,-0.4667 -0.47,-0.64 -0.2133,-0.18 -0.4867,-0.3167 -0.82,-0.41 -0.3333,-0.0933 -0.7367,-0.14 -1.21,-0.14 l -2.72,0 m 0,-1.86 2.15,0 c 0.9133,1e-5 1.607,-0.1667 2.08,-0.5 0.4733,-0.3333 0.71,-0.8633 0.71,-1.59 0,-0.7533 -0.2133,-1.29 -0.64,-1.61 -0.4267,-0.32 -1.093,-0.48 -2,-0.48 l -2.3,0 0,4.18"
         id="path106"
         inkscape:connector-curvature="0" />
    </g>
  </g>
  <g
     transform="translate(-6.0045488,-286.47609)"
     id="g108">
    <path
       style="color:#000000;fill:#ffffff;fill-rule:nonzero;stroke:#e5ff80;stroke-width:5.26785707;stroke-miterlimit:4;stroke-dasharray:none;enable-background:accumulate"
       d="m 199.1,175.1 c 0,14.55 -11.79,26.34 -26.34,26.34 -14.55,0 -26.34,-11.79 -26.34,-26.34 0,-14.55 11.79,-26.34 26.34,-26.34 14.55,0 26.34,11.79 26.34,26.34 z"
       transform="matrix(1.5186441,0,0,1.5186441,171.33032,228.60187)"
       id="path110"
       inkscape:connector-curvature="0" />
    <g
       style="font-style:normal;font-variant:normal;font-weight:bold;font-stretch:normal;font-size:14px;line-height:125%;font-family:Lato;text-align:end;letter-spacing:0px;word-spacing:0px;writing-mode:lr-tb;text-anchor:end;fill:#999999"
       transform="scale(1.0429804,0.95879079)"
       id="g112">
      <path
         style="fill:#999999"
         d="m 396.5,515.9 c -10e-6,0.742 -0.1237,1.423 -0.371,2.044 -0.2473,0.6207 -0.595,1.155 -1.043,1.603 -0.448,0.448 -0.987,0.7957 -1.617,1.043 -0.63,0.2473 -1.328,0.371 -2.093,0.371 l -3.864,0 0,-10.12 3.864,0 c 0.7653,10e-6 1.463,0.126 2.093,0.378 0.63,0.2473 1.169,0.595 1.617,1.043 0.448,0.4433 0.7957,0.9753 1.043,1.596 0.2473,0.6207 0.371,1.302 0.371,2.044 m -1.925,0 c 0,-0.5553 -0.0747,-1.052 -0.224,-1.491 -0.1493,-0.4433 -0.3617,-0.8167 -0.637,-1.12 -0.2753,-0.308 -0.6113,-0.5437 -1.008,-0.707 -0.392,-0.1633 -0.8353,-0.245 -1.33,-0.245 l -1.967,0 0,7.126 1.967,0 c 0.4947,0 0.938,-0.0817 1.33,-0.245 0.3967,-0.1633 0.7327,-0.3967 1.008,-0.7 0.2753,-0.308 0.4877,-0.6813 0.637,-1.12 0.1493,-0.4433 0.224,-0.9427 0.224,-1.498"
         id="path114"
         inkscape:connector-curvature="0" />
      <path
         style="fill:#999999"
         d="m 400.9,513.7 c 0.5367,10e-6 1.022,0.0863 1.456,0.259 0.4387,0.1727 0.812,0.4177 1.12,0.735 0.308,0.3173 0.546,0.7047 0.714,1.162 0.168,0.4573 0.252,0.9683 0.252,1.533 -1e-5,0.5693 -0.084,1.083 -0.252,1.54 -0.168,0.4573 -0.406,0.847 -0.714,1.169 -0.308,0.322 -0.6813,0.5693 -1.12,0.742 -0.434,0.1727 -0.9193,0.259 -1.456,0.259 -0.5367,0 -1.024,-0.0863 -1.463,-0.259 -0.4387,-0.1727 -0.8143,-0.42 -1.127,-0.742 -0.308,-0.322 -0.5483,-0.7117 -0.721,-1.169 -0.168,-0.4573 -0.252,-0.9707 -0.252,-1.54 0,-0.5647 0.084,-1.076 0.252,-1.533 0.1727,-0.4573 0.413,-0.8447 0.721,-1.162 0.3127,-0.3173 0.6883,-0.5623 1.127,-0.735 0.4387,-0.1727 0.9263,-0.259 1.463,-0.259 m 0,6.069 c 0.5973,0 1.038,-0.2007 1.323,-0.602 0.2893,-0.4013 0.434,-0.9893 0.434,-1.764 0,-0.7747 -0.1447,-1.365 -0.434,-1.771 -0.2847,-0.406 -0.7257,-0.609 -1.323,-0.609 -0.6067,10e-6 -1.055,0.2053 -1.344,0.616 -0.2893,0.406 -0.434,0.994 -0.434,1.764 0,0.77 0.1447,1.358 0.434,1.764 0.2893,0.4013 0.7373,0.602 1.344,0.602"
         id="path116"
         inkscape:connector-curvature="0" />
      <path
         style="fill:#999999"
         d="m 410.9,515.3 c -0.0513,0.0653 -0.1027,0.1167 -0.154,0.154 -0.0467,0.0373 -0.1167,0.056 -0.21,0.056 -0.0887,10e-6 -0.175,-0.0257 -0.259,-0.077 -0.084,-0.056 -0.1843,-0.1167 -0.301,-0.182 -0.1167,-0.07 -0.2567,-0.1307 -0.42,-0.182 -0.1587,-0.056 -0.357,-0.084 -0.595,-0.084 -0.3033,10e-6 -0.5693,0.056 -0.798,0.168 -0.2287,0.1073 -0.42,0.2637 -0.574,0.469 -0.1493,0.2053 -0.2613,0.455 -0.336,0.749 -0.0747,0.2893 -0.112,0.6183 -0.112,0.987 0,0.3827 0.0397,0.7233 0.119,1.022 0.084,0.2987 0.203,0.5507 0.357,0.756 0.154,0.2007 0.3407,0.3547 0.56,0.462 0.2193,0.1027 0.4667,0.154 0.742,0.154 0.2753,0 0.497,-0.0327 0.665,-0.098 0.1727,-0.07 0.3173,-0.1447 0.434,-0.224 0.1167,-0.084 0.217,-0.1587 0.301,-0.224 0.0887,-0.07 0.1867,-0.105 0.294,-0.105 0.14,0 0.245,0.0537 0.315,0.161 l 0.497,0.63 c -0.1913,0.224 -0.399,0.413 -0.623,0.567 -0.224,0.1493 -0.4573,0.2707 -0.7,0.364 -0.238,0.0887 -0.4853,0.1517 -0.742,0.189 -0.2567,0.0373 -0.511,0.056 -0.763,0.056 -0.4433,0 -0.861,-0.0817 -1.253,-0.245 -0.392,-0.168 -0.735,-0.4107 -1.029,-0.728 -0.2893,-0.3173 -0.5203,-0.7047 -0.693,-1.162 -0.168,-0.462 -0.252,-0.987 -0.252,-1.575 0,-0.5273 0.0747,-1.015 0.224,-1.463 0.154,-0.4527 0.378,-0.8423 0.672,-1.169 0.294,-0.3313 0.658,-0.5903 1.092,-0.777 0.434,-0.1867 0.9333,-0.28 1.498,-0.28 0.5367,10e-6 1.006,0.0863 1.407,0.259 0.406,0.1727 0.77,0.42 1.092,0.742 l -0.455,0.63"
         id="path118"
         inkscape:connector-curvature="0" />
      <path
         style="fill:#999999"
         d="m 412.6,521 0,-10.12 3.493,0 c 0.6627,1e-5 1.227,0.063 1.694,0.189 0.4713,0.126 0.8563,0.3057 1.155,0.539 0.3033,0.2333 0.525,0.5157 0.665,0.847 0.14,0.3313 0.21,0.7047 0.21,1.12 -1e-5,0.238 -0.035,0.4667 -0.105,0.686 -0.07,0.2147 -0.1797,0.4177 -0.329,0.609 -0.1447,0.1867 -0.3313,0.357 -0.56,0.511 -0.224,0.154 -0.4923,0.2847 -0.805,0.392 1.391,0.3127 2.086,1.064 2.086,2.254 -10e-6,0.4293 -0.0817,0.826 -0.245,1.19 -0.1633,0.364 -0.4013,0.679 -0.714,0.945 -0.3127,0.2613 -0.6977,0.4667 -1.155,0.616 -0.4573,0.1493 -0.98,0.224 -1.568,0.224 l -3.822,0 m 1.883,-4.438 0,2.968 1.911,0 c 0.35,0 0.6417,-0.042 0.875,-0.126 0.238,-0.084 0.427,-0.196 0.567,-0.336 0.1447,-0.14 0.2473,-0.3033 0.308,-0.49 0.0653,-0.1867 0.098,-0.385 0.098,-0.595 -1e-5,-0.2193 -0.035,-0.4153 -0.105,-0.588 -0.07,-0.1773 -0.1797,-0.3267 -0.329,-0.448 -0.1493,-0.126 -0.3407,-0.2217 -0.574,-0.287 -0.2333,-0.0653 -0.5157,-0.098 -0.847,-0.098 l -1.904,0 m 0,-1.302 1.505,0 c 0.6393,1e-5 1.125,-0.1167 1.456,-0.35 0.3313,-0.2333 0.497,-0.6043 0.497,-1.113 -10e-6,-0.5273 -0.1493,-0.903 -0.448,-1.127 -0.2987,-0.224 -0.7653,-0.336 -1.4,-0.336 l -1.61,0 0,2.926"
         id="path120"
         inkscape:connector-curvature="0" />
      <path
         style="fill:#999999"
         d="m 424.7,513.7 c 0.5367,10e-6 1.022,0.0863 1.456,0.259 0.4387,0.1727 0.812,0.4177 1.12,0.735 0.308,0.3173 0.546,0.7047 0.714,1.162 0.168,0.4573 0.252,0.9683 0.252,1.533 -1e-5,0.5693 -0.084,1.083 -0.252,1.54 -0.168,0.4573 -0.406,0.847 -0.714,1.169 -0.308,0.322 -0.6813,0.5693 -1.12,0.742 -0.434,0.1727 -0.9193,0.259 -1.456,0.259 -0.5367,0 -1.024,-0.0863 -1.463,-0.259 -0.4387,-0.1727 -0.8143,-0.42 -1.127,-0.742 -0.308,-0.322 -0.5483,-0.7117 -0.721,-1.169 -0.168,-0.4573 -0.252,-0.9707 -0.252,-1.54 0,-0.5647 0.084,-1.076 0.252,-1.533 0.1727,-0.4573 0.413,-0.8447 0.721,-1.162 0.3127,-0.3173 0.6883,-0.5623 1.127,-0.735 0.4387,-0.1727 0.9263,-0.259 1.463,-0.259 m 0,6.069 c 0.5973,0 1.038,-0.2007 1.323,-0.602 0.2893,-0.4013 0.434,-0.9893 0.434,-1.764 -10e-6,-0.7747 -0.1447,-1.365 -0.434,-1.771 -0.2847,-0.406 -0.7257,-0.609 -1.323,-0.609 -0.6067,10e-6 -1.055,0.2053 -1.344,0.616 -0.2893,0.406 -0.434,0.994 -0.434,1.764 0,0.77 0.1447,1.358 0.434,1.764 0.2893,0.4013 0.7373,0.602 1.344,0.602"
         id="path122"
         inkscape:connector-curvature="0" />
      <path
         style="fill:#999999"
         d="m 432.6,513.7 c 0.5367,10e-6 1.022,0.0863 1.456,0.259 0.4387,0.1727 0.812,0.4177 1.12,0.735 0.308,0.3173 0.546,0.7047 0.714,1.162 0.168,0.4573 0.252,0.9683 0.252,1.533 -10e-6,0.5693 -0.084,1.083 -0.252,1.54 -0.168,0.4573 -0.406,0.847 -0.714,1.169 -0.308,0.322 -0.6813,0.5693 -1.12,0.742 -0.434,0.1727 -0.9193,0.259 -1.456,0.259 -0.5367,0 -1.024,-0.0863 -1.463,-0.259 -0.4387,-0.1727 -0.8143,-0.42 -1.127,-0.742 -0.308,-0.322 -0.5483,-0.7117 -0.721,-1.169 -0.168,-0.4573 -0.252,-0.9707 -0.252,-1.54 0,-0.5647 0.084,-1.076 0.252,-1.533 0.1727,-0.4573 0.413,-0.8447 0.721,-1.162 0.3127,-0.3173 0.6883,-0.5623 1.127,-0.735 0.4387,-0.1727 0.9263,-0.259 1.463,-0.259 m 0,6.069 c 0.5973,0 1.038,-0.2007 1.323,-0.602 0.2893,-0.4013 0.434,-0.9893 0.434,-1.764 0,-0.7747 -0.1447,-1.365 -0.434,-1.771 -0.2847,-0.406 -0.7257,-0.609 -1.323,-0.609 -0.6067,10e-6 -1.055,0.2053 -1.344,0.616 -0.2893,0.406 -0.434,0.994 -0.434,1.764 0,0.77 0.1447,1.358 0.434,1.764 0.2893,0.4013 0.7373,0.602 1.344,0.602"
         id="path124"
         inkscape:connector-curvature="0" />
      <path
         style="fill:#999999"
         d="m 439.3,510.6 0,5.957 0.322,0 c 0.1167,10e-6 0.2077,-0.0163 0.273,-0.049 0.0653,-0.0327 0.1353,-0.0933 0.21,-0.182 l 1.785,-2.205 c 0.0793,-0.0933 0.1633,-0.1657 0.252,-0.217 0.0887,-0.056 0.2053,-0.084 0.35,-0.084 l 1.582,0 -2.233,2.667 c -0.0793,0.098 -0.161,0.189 -0.245,0.273 -0.084,0.0793 -0.175,0.1493 -0.273,0.21 0.098,0.07 0.1843,0.1517 0.259,0.245 0.0747,0.0933 0.1493,0.1937 0.224,0.301 l 2.394,3.486 -1.561,0 c -0.1353,0 -0.2497,-0.0233 -0.343,-0.07 -0.0933,-0.0467 -0.1773,-0.126 -0.252,-0.238 l -1.827,-2.723 c -0.07,-0.1073 -0.14,-0.1773 -0.21,-0.21 -0.07,-0.0327 -0.175,-0.049 -0.315,-0.049 l -0.392,0 0,3.29 -1.729,0 0,-10.4 1.729,0"
         id="path126"
         inkscape:connector-curvature="0" />
    </g>
  </g>
  <g
     transform="translate(-6.0045488,-286.47609)"
     id="g128">
    <path
       style="color:#000000;fill:#ffffff;fill-rule:nonzero;stroke:#e5ff80;stroke-width:6.7045455;stroke-miterlimit:4;stroke-dasharray:none;enable-background:accumulate"
       d="m 199.1,175.1 c 0,14.55 -11.79,26.34 -26.34,26.34 -14.55,0 -26.34,-11.79 -26.34,-26.34 0,-14.55 11.79,-26.34 26.34,-26.34 14.55,0 26.34,11.79 26.34,26.34 z"
       transform="matrix(2.0881357,0,0,2.0881357,-277.74028,479.93755)"
       id="path130"
       inkscape:connector-curvature="0" />
    <g
       style="font-style:normal;font-variant:normal;font-weight:bold;font-stretch:normal;font-size:24px;line-height:125%;font-family:Lato;text-align:end;letter-spacing:0px;word-spacing:0px;writing-mode:lr-tb;text-anchor:end;fill:#999999"
       transform="scale(1.0429804,0.95879079)"
       id="g132">
      <path
         style="fill:#999999"
         d="m 59.36,876.6 c -0.08801,0.176 -0.192,0.3 -0.312,0.372 -0.112,0.072 -0.248,0.108 -0.408,0.108 -0.16,2e-5 -0.34,-0.06 -0.54,-0.18 -0.2,-0.128 -0.436,-0.268 -0.708,-0.42 -0.272,-0.152 -0.592,-0.288 -0.96,-0.408 -0.36,-0.128 -0.788,-0.192 -1.284,-0.192 -0.448,2e-5 -0.84,0.056 -1.176,0.168 -0.328,0.104 -0.608,0.252 -0.84,0.444 -0.224,0.192 -0.392,0.424 -0.504,0.696 -0.112,0.264 -0.168,0.556 -0.168,0.876 -5e-6,0.408 0.112,0.748 0.336,1.02 0.232,0.272 0.536,0.504 0.912,0.696 0.376,0.192 0.804,0.364 1.284,0.516 0.48,0.152 0.968,0.316 1.464,0.492 0.504,0.168 0.996,0.368 1.476,0.6 0.48,0.224 0.908,0.512 1.284,0.864 0.376,0.344 0.676,0.768 0.9,1.272 0.232,0.504 0.348,1.116 0.348,1.836 -1.3e-5,0.784 -0.136,1.52 -0.408,2.208 -0.264,0.68 -0.656,1.276 -1.176,1.788 -0.512,0.504 -1.14,0.904 -1.884,1.2 -0.744,0.288 -1.596,0.432 -2.556,0.432 -0.552,0 -1.096,-0.056 -1.632,-0.168 -0.536,-0.104 -1.052,-0.256 -1.548,-0.456 -0.488,-0.2 -0.948,-0.44 -1.38,-0.72 -0.424,-0.28 -0.804,-0.592 -1.14,-0.936 l 0.936,-1.548 c 0.088,-0.112 0.192,-0.204 0.312,-0.276 0.128,-0.08 0.268,-0.12 0.42,-0.12 0.2,10e-6 0.416,0.084 0.648,0.252 0.232,0.16 0.504,0.34 0.816,0.54 0.32,0.2 0.692,0.384 1.116,0.552 0.432,0.16 0.948,0.24 1.548,0.24 0.92,0 1.632,-0.216 2.136,-0.648 0.504,-0.44 0.756,-1.068 0.756,-1.884 -9e-6,-0.456 -0.116,-0.828 -0.348,-1.116 -0.224,-0.288 -0.524,-0.528 -0.9,-0.72 -0.376,-0.2 -0.804,-0.368 -1.284,-0.504 -0.48,-0.136 -0.968,-0.284 -1.464,-0.444 -0.496,-0.16 -0.984,-0.352 -1.464,-0.576 -0.48,-0.224 -0.908,-0.516 -1.284,-0.876 -0.376,-0.36 -0.68,-0.808 -0.912,-1.344 -0.224,-0.544 -0.336,-1.212 -0.336,-2.004 -10e-7,-0.632 0.124,-1.248 0.372,-1.848 0.256,-0.6 0.624,-1.132 1.104,-1.596 0.488,-0.464 1.084,-0.836 1.788,-1.116 0.704,-0.28 1.508,-0.42 2.412,-0.42 1.024,2e-5 1.968,0.16 2.832,0.48 0.864,0.32 1.6,0.768 2.208,1.344 L 59.36,876.6"
         id="path134"
         inkscape:connector-curvature="0" />
      <path
         style="fill:#999999"
         d="m 65.94,873 0,17.83 -2.964,0 0,-17.83 2.964,0"
         id="path136"
         inkscape:connector-curvature="0" />
      <path
         style="fill:#999999"
         d="m 72.46,878.5 0,12.31 -2.964,0 0,-12.31 2.964,0 m 0.444,-3.588 c -6e-6,0.256 -0.052,0.496 -0.156,0.72 -0.104,0.224 -0.244,0.42 -0.42,0.588 -0.168,0.168 -0.368,0.304 -0.6,0.408 -0.232,0.096 -0.48,0.144 -0.744,0.144 -0.256,2e-5 -0.5,-0.048 -0.732,-0.144 -0.224,-0.104 -0.42,-0.24 -0.588,-0.408 -0.168,-0.168 -0.304,-0.364 -0.408,-0.588 -0.096,-0.224 -0.144,-0.464 -0.144,-0.72 -2e-6,-0.264 0.048,-0.512 0.144,-0.744 0.104,-0.232 0.24,-0.432 0.408,-0.6 0.168,-0.168 0.364,-0.3 0.588,-0.396 0.232,-0.104 0.476,-0.156 0.732,-0.156 0.264,2e-5 0.512,0.052 0.744,0.156 0.232,0.096 0.432,0.228 0.6,0.396 0.176,0.168 0.316,0.368 0.42,0.6 0.104,0.232 0.156,0.48 0.156,0.744"
         id="path138"
         inkscape:connector-curvature="0" />
      <path
         style="fill:#999999"
         d="m 84.48,890.8 c -0.384,0 -0.636,-0.18 -0.756,-0.54 l -0.24,-1.188 c -0.256,0.288 -0.524,0.548 -0.804,0.78 -0.28,0.232 -0.584,0.432 -0.912,0.6 -0.32,0.168 -0.668,0.296 -1.044,0.384 -0.368,0.096 -0.768,0.144 -1.2,0.144 -0.672,0 -1.288,-0.14 -1.848,-0.42 -0.56,-0.28 -1.044,-0.684 -1.452,-1.212 -0.4,-0.536 -0.712,-1.196 -0.936,-1.98 -0.216,-0.784 -0.324,-1.68 -0.324,-2.688 -10e-7,-0.912 0.124,-1.76 0.372,-2.544 0.248,-0.784 0.604,-1.464 1.068,-2.04 0.464,-0.576 1.02,-1.024 1.668,-1.344 0.648,-0.328 1.376,-0.492 2.184,-0.492 0.688,10e-6 1.276,0.112 1.764,0.336 0.488,0.216 0.924,0.508 1.308,0.876 l 0,-6.504 2.964,0 0,17.83 -1.812,0 m -3.948,-2.172 c 0.616,0 1.14,-0.128 1.572,-0.384 0.432,-0.256 0.84,-0.62 1.224,-1.092 l 0,-5.52 c -0.336,-0.408 -0.704,-0.696 -1.104,-0.864 -0.392,-0.168 -0.816,-0.252 -1.272,-0.252 -0.448,10e-6 -0.856,0.084 -1.224,0.252 -0.36,0.168 -0.668,0.424 -0.924,0.768 -0.248,0.336 -0.44,0.768 -0.576,1.296 -0.136,0.52 -0.204,1.136 -0.204,1.848 -4e-6,0.72 0.056,1.332 0.168,1.836 0.12,0.496 0.288,0.904 0.504,1.224 0.216,0.312 0.48,0.54 0.792,0.684 0.312,0.136 0.66,0.204 1.044,0.204"
         id="path140"
         inkscape:connector-curvature="0" />
      <path
         style="fill:#999999"
         d="m 94.59,878.3 c 0.776,1e-5 1.488,0.124 2.136,0.372 0.656,0.248 1.22,0.612 1.692,1.092 0.472,0.472 0.84,1.056 1.104,1.752 0.264,0.688 0.396,1.476 0.396,2.364 -1.2e-5,0.224 -0.01201,0.412 -0.036,0.564 -0.01601,0.144 -0.05201,0.26 -0.108,0.348 -0.04801,0.08 -0.116,0.14 -0.204,0.18 -0.08801,0.032 -0.2,0.048 -0.336,0.048 l -7.608,0 c 0.088,1.264 0.428,2.192 1.02,2.784 0.592,0.592 1.376,0.888 2.352,0.888 0.48,0 0.892,-0.056 1.236,-0.168 0.352,-0.112 0.656,-0.236 0.912,-0.372 0.264,-0.136 0.492,-0.26 0.684,-0.372 0.2,-0.112 0.392,-0.168 0.576,-0.168 0.12,1e-5 0.224,0.024 0.312,0.072 0.08799,0.048 0.164,0.116 0.228,0.204 l 0.864,1.08 c -0.328,0.384 -0.696,0.708 -1.104,0.972 -0.408,0.256 -0.836,0.464 -1.284,0.624 -0.44,0.152 -0.892,0.26 -1.356,0.324 -0.456,0.064 -0.9,0.096 -1.332,0.096 -0.856,0 -1.652,-0.14 -2.388,-0.42 -0.736,-0.288 -1.376,-0.708 -1.92,-1.26 -0.544,-0.56 -0.972,-1.248 -1.284,-2.064 -0.312,-0.824 -0.468,-1.776 -0.468,-2.856 -1e-6,-0.84 0.136,-1.628 0.408,-2.364 0.272,-0.744 0.66,-1.388 1.164,-1.932 0.512,-0.552 1.132,-0.988 1.86,-1.308 0.736,-0.32 1.564,-0.48 2.484,-0.48 m 0.06,2.124 c -0.864,10e-6 -1.54,0.244 -2.028,0.732 -0.488,0.488 -0.8,1.18 -0.936,2.076 l 5.568,0 c -1e-5,-0.384 -0.05201,-0.744 -0.156,-1.08 -0.104,-0.344 -0.264,-0.644 -0.48,-0.9 -0.216,-0.256 -0.488,-0.456 -0.816,-0.6 -0.328,-0.152 -0.712,-0.228 -1.152,-0.228"
         id="path142"
         inkscape:connector-curvature="0" />
      <path
         style="fill:#999999"
         d="m 109.7,880.9 c -0.08,0.128 -0.164,0.22 -0.252,0.276 -0.088,0.048 -0.2,0.072 -0.336,0.072 -0.144,10e-6 -0.3,-0.04 -0.468,-0.12 -0.16,-0.08 -0.348,-0.168 -0.564,-0.264 -0.216,-0.104 -0.464,-0.196 -0.744,-0.276 -0.272,-0.08 -0.596,-0.12 -0.972,-0.12 -0.584,1e-5 -1.044,0.124 -1.38,0.372 -0.336,0.248 -0.504,0.572 -0.504,0.972 -1e-5,0.264 0.084,0.488 0.252,0.672 0.176,0.176 0.404,0.332 0.684,0.468 0.288,0.136 0.612,0.26 0.972,0.372 0.36,0.104 0.728,0.22 1.104,0.348 0.376,0.128 0.744,0.276 1.104,0.444 0.36,0.16 0.68,0.368 0.96,0.624 0.288,0.248 0.516,0.548 0.684,0.9 0.176,0.352 0.264,0.776 0.264,1.272 -1e-5,0.592 -0.108,1.14 -0.324,1.644 -0.216,0.496 -0.532,0.928 -0.948,1.296 -0.416,0.36 -0.932,0.644 -1.548,0.852 -0.608,0.2 -1.308,0.3 -2.1,0.3 -0.424,0 -0.84,-0.04 -1.248,-0.12 -0.4,-0.072 -0.788,-0.176 -1.164,-0.312 -0.368,-0.136 -0.712,-0.296 -1.032,-0.48 -0.312,-0.184 -0.588,-0.384 -0.828,-0.6 l 0.684,-1.128 c 0.088,-0.136 0.192,-0.24 0.312,-0.312 0.12,-0.072 0.272,-0.108 0.456,-0.108 0.184,0 0.356,0.052 0.516,0.156 0.168,0.104 0.36,0.216 0.576,0.336 0.216,0.12 0.468,0.232 0.756,0.336 0.296,0.104 0.668,0.156 1.116,0.156 0.352,0 0.652,-0.04 0.9,-0.12 0.256,-0.088 0.464,-0.2 0.624,-0.336 0.168,-0.136 0.288,-0.292 0.36,-0.468 0.08,-0.184 0.12,-0.372 0.12,-0.564 -1e-5,-0.288 -0.088,-0.524 -0.264,-0.708 -0.168,-0.184 -0.396,-0.344 -0.684,-0.48 -0.28,-0.136 -0.604,-0.256 -0.972,-0.36 -0.36,-0.112 -0.732,-0.232 -1.116,-0.36 -0.376,-0.128 -0.748,-0.276 -1.116,-0.444 -0.36,-0.176 -0.684,-0.396 -0.972,-0.66 -0.28,-0.264 -0.508,-0.588 -0.684,-0.972 -0.168,-0.384 -0.252,-0.848 -0.252,-1.392 0,-0.504 0.1,-0.984 0.3,-1.44 0.2,-0.456 0.492,-0.852 0.876,-1.188 0.392,-0.344 0.876,-0.616 1.452,-0.816 0.584,-0.208 1.256,-0.312 2.016,-0.312 0.848,10e-6 1.62,0.14 2.316,0.42 0.696,0.28 1.276,0.648 1.74,1.104 L 109.7,880.9"
         id="path144"
         inkscape:connector-curvature="0" />
    </g>
  </g>
  <g
     transform="translate(-6.0045488,-286.47609)"
     id="g146">
    <path
       style="color:#000000;fill:#ffffff;fill-rule:nonzero;stroke:#e5ff80;stroke-width:5.26785707;stroke-miterlimit:4;stroke-dasharray:none;enable-background:accumulate"
       d="m 199.1,175.1 c 0,14.55 -11.79,26.34 -26.34,26.34 -14.55,0 -26.34,-11.79 -26.34,-26.34 0,-14.55 11.79,-26.34 26.34,-26.34 14.55,0 26.34,11.79 26.34,26.34 z"
       transform="matrix(1.5186441,0,0,1.5186441,-143.59694,244.36287)"
       id="path148"
       inkscape:connector-curvature="0" />
    <g
       style="font-style:normal;font-variant:normal;font-weight:bold;font-stretch:normal;font-size:16px;line-height:125%;font-family:Lato;text-align:end;letter-spacing:0px;word-spacing:0px;writing-mode:lr-tb;text-anchor:end;fill:#999999"
       transform="scale(1.0429804,0.95879079)"
       id="g150">
      <path
         style="fill:#999999"
         d="m 92.69,537.2 5.79,0 0,2.22 -8.48,0 0,-14.46 2.69,0 0,12.24"
         id="path152"
         inkscape:connector-curvature="0" />
      <path
         style="fill:#999999"
         d="m 108.2,539.4 -1.11,0 c -0.2333,0 -0.4167,-0.0333 -0.55,-0.1 -0.1333,-0.0733 -0.2333,-0.2167 -0.3,-0.43 l -0.22,-0.73 c -0.26,0.2333 -0.5167,0.44 -0.77,0.62 -0.2467,0.1733 -0.5033,0.32 -0.77,0.44 -0.2667,0.12 -0.55,0.21 -0.85,0.27 -0.3,0.06 -0.6333,0.09 -1,0.09 -0.4333,0 -0.8333,-0.0567 -1.2,-0.17 -0.3667,-0.12 -0.6833,-0.2967 -0.95,-0.53 -0.26,-0.2333 -0.4633,-0.5233 -0.61,-0.87 -0.1467,-0.3467 -0.22,-0.75 -0.22,-1.21 -1e-6,-0.3867 0.1,-0.7667 0.3,-1.14 0.2067,-0.38 0.5467,-0.72 1.02,-1.02 0.4733,-0.3067 1.103,-0.56 1.89,-0.76 0.7867,-0.2 1.763,-0.3133 2.93,-0.34 l 0,-0.6 c -1e-5,-0.6867 -0.1467,-1.193 -0.44,-1.52 -0.2867,-0.3333 -0.7067,-0.5 -1.26,-0.5 -0.4,10e-6 -0.7333,0.0467 -1,0.14 -0.2667,0.0933 -0.5,0.2 -0.7,0.32 -0.1933,0.1133 -0.3733,0.2167 -0.54,0.31 -0.1667,0.0933 -0.35,0.14 -0.55,0.14 -0.1667,1e-5 -0.31,-0.0433 -0.43,-0.13 -0.12,-0.0867 -0.2167,-0.1933 -0.29,-0.32 l -0.45,-0.79 c 1.18,-1.08 2.603,-1.62 4.27,-1.62 0.6,10e-6 1.133,0.1 1.6,0.3 0.4733,0.1934 0.8733,0.4667 1.2,0.82 0.3267,0.3467 0.5733,0.7633 0.74,1.25 0.1733,0.4867 0.26,1.02 0.26,1.6 l 0,6.48 m -4.8,-1.54 c 0.2533,0 0.4867,-0.0233 0.7,-0.07 0.2133,-0.0467 0.4133,-0.1167 0.6,-0.21 0.1933,-0.0933 0.3767,-0.2067 0.55,-0.34 0.18,-0.14 0.36,-0.3033 0.54,-0.49 l 0,-1.73 c -0.72,0.0333 -1.323,0.0967 -1.81,0.19 -0.48,0.0867 -0.8667,0.2 -1.16,0.34 -0.2933,0.14 -0.5033,0.3033 -0.63,0.49 -0.12,0.1867 -0.18,0.39 -0.18,0.61 0,0.4333 0.1267,0.7433 0.38,0.93 0.26,0.1867 0.5967,0.28 1.01,0.28"
         id="path154"
         inkscape:connector-curvature="0" />
      <path
         style="fill:#999999"
         d="m 114,539.6 c -0.8867,0 -1.57,-0.25 -2.05,-0.75 -0.48,-0.5067 -0.72,-1.203 -0.72,-2.09 l 0,-5.73 -1.04,0 c -0.1333,10e-6 -0.25,-0.0433 -0.35,-0.13 -0.0933,-0.0867 -0.14,-0.2167 -0.14,-0.39 l 0,-0.98 1.65,-0.27 0.52,-2.8 c 0.0267,-0.1333 0.0867,-0.2366 0.18,-0.31 0.1,-0.0733 0.2233,-0.11 0.37,-0.11 l 1.28,0 0,3.23 2.7,0 0,1.76 -2.7,0 0,5.56 c 0,0.32 0.08,0.57 0.24,0.75 0.16,0.18 0.3733,0.27 0.64,0.27 0.1533,0 0.28,-0.0167 0.38,-0.05 0.1067,-0.04 0.1967,-0.08 0.27,-0.12 0.08,-0.04 0.15,-0.0767 0.21,-0.11 0.06,-0.04 0.12,-0.06 0.18,-0.06 0.0733,0 0.1333,0.02 0.18,0.06 0.0467,0.0333 0.0967,0.0867 0.15,0.16 l 0.74,1.2 c -0.36,0.3 -0.7733,0.5267 -1.24,0.68 -0.4667,0.1533 -0.95,0.23 -1.45,0.23"
         id="path156"
         inkscape:connector-curvature="0" />
      <path
         style="fill:#999999"
         d="m 122.7,529 c 0.6467,10e-6 1.24,0.1034 1.78,0.31 0.5467,0.2067 1.017,0.51 1.41,0.91 0.3933,0.3933 0.7,0.88 0.92,1.46 0.22,0.5733 0.33,1.23 0.33,1.97 -1e-5,0.1867 -0.01,0.3433 -0.03,0.47 -0.0134,0.12 -0.0434,0.2167 -0.09,0.29 -0.04,0.0667 -0.0967,0.1167 -0.17,0.15 -0.0734,0.0267 -0.1667,0.04 -0.28,0.04 l -6.34,0 c 0.0733,1.053 0.3567,1.827 0.85,2.32 0.4933,0.4933 1.147,0.74 1.96,0.74 0.4,0 0.7433,-0.0467 1.03,-0.14 0.2933,-0.0933 0.5467,-0.1967 0.76,-0.31 0.22,-0.1133 0.41,-0.2167 0.57,-0.31 0.1667,-0.0933 0.3266,-0.14 0.48,-0.14 0.1,10e-6 0.1866,0.02 0.26,0.06 0.0733,0.04 0.1366,0.0967 0.19,0.17 l 0.72,0.9 c -0.2734,0.32 -0.58,0.59 -0.92,0.81 -0.34,0.2133 -0.6967,0.3867 -1.07,0.52 -0.3667,0.1267 -0.7433,0.2167 -1.13,0.27 -0.38,0.0533 -0.75,0.08 -1.11,0.08 -0.7133,0 -1.377,-0.1167 -1.99,-0.35 -0.6133,-0.24 -1.147,-0.59 -1.6,-1.05 -0.4533,-0.4667 -0.81,-1.04 -1.07,-1.72 -0.26,-0.6867 -0.39,-1.48 -0.39,-2.38 0,-0.7 0.1133,-1.357 0.34,-1.97 0.2267,-0.62 0.55,-1.157 0.97,-1.61 0.4267,-0.46 0.9433,-0.8233 1.55,-1.09 0.6133,-0.2666 1.303,-0.4 2.07,-0.4 m 0.05,1.77 c -0.72,10e-6 -1.283,0.2033 -1.69,0.61 -0.4067,0.4067 -0.6667,0.9833 -0.78,1.73 l 4.64,0 c -1e-5,-0.32 -0.0433,-0.62 -0.13,-0.9 -0.0867,-0.2867 -0.22,-0.5367 -0.4,-0.75 -0.18,-0.2133 -0.4067,-0.38 -0.68,-0.5 -0.2733,-0.1267 -0.5933,-0.19 -0.96,-0.19"
         id="path158"
         inkscape:connector-curvature="0" />
      <path
         style="fill:#999999"
         d="m 131,534.1 -3.37,-4.97 2.38,0 c 0.18,10e-6 0.3133,0.0267 0.4,0.08 0.0867,0.0467 0.1633,0.1267 0.23,0.24 l 2.15,3.43 c 0.0333,-0.1133 0.0733,-0.2267 0.12,-0.34 0.0533,-0.1133 0.1167,-0.2267 0.19,-0.34 l 1.73,-2.7 c 0.08,-0.1266 0.1633,-0.22 0.25,-0.28 0.0867,-0.06 0.1933,-0.09 0.32,-0.09 l 2.27,0 -3.38,4.86 3.52,5.4 -2.38,0 c -0.18,0 -0.3267,-0.0467 -0.44,-0.14 -0.1067,-0.0933 -0.1967,-0.2 -0.27,-0.32 l -2.18,-3.57 c -0.06,0.24 -0.1433,0.44 -0.25,0.6 l -1.92,2.97 c -0.0733,0.1133 -0.1633,0.22 -0.27,0.32 -0.1067,0.0933 -0.24,0.14 -0.4,0.14 l -2.21,0 3.51,-5.29"
         id="path160"
         inkscape:connector-curvature="0" />
    </g>
  </g>
  <g
     transform="translate(15.017892,15.058367)"
     id="g162">
    <g
       style="font-style:normal;font-variant:normal;font-weight:normal;font-stretch:normal;font-size:48px;line-height:125%;font-family:Lato;text-align:end;letter-spacing:0px;word-spacing:0px;writing-mode:lr-tb;text-anchor:end;fill:#333333"
       id="g164">
      <path
         style="fill:#333333"
         d="m 608.8,230.7 0,3.16 -13.76,0 0,9.52 11.14,0 0,3.04 -11.14,0 0,9.78 13.76,0 0,3.16 -17.66,0 0,-28.66 17.66,0 m -1.76,-6.98 -5.88,4.32 c -0.2267,0.16 -0.4267,0.2667 -0.6,0.32 -0.1733,0.0534 -0.4,0.08 -0.68,0.08 l -2.76,0 4.22,-4.06 c 0.1333,-0.1333 0.2533,-0.24 0.36,-0.32 0.12,-0.08 0.24,-0.1466 0.36,-0.2 0.12,-0.0533 0.2533,-0.0866 0.4,-0.1 0.1466,-0.0266 0.3333,-0.04 0.56,-0.04 l 4.02,0"
         id="path166"
         inkscape:connector-curvature="0" />
      <path
         style="fill:#333333"
         d="m 627.6,242.7 c -0.1067,0.1467 -0.2134,0.26 -0.32,0.34 -0.1067,0.08 -0.26,0.12 -0.46,0.12 -0.2,1e-5 -0.42,-0.08 -0.66,-0.24 -0.2267,-0.1733 -0.52,-0.36 -0.88,-0.56 -0.36,-0.2 -0.8,-0.38 -1.32,-0.54 -0.5067,-0.1733 -1.133,-0.26 -1.88,-0.26 -0.9867,2e-5 -1.86,0.18 -2.62,0.54 -0.76,0.3467 -1.4,0.8534 -1.92,1.52 -0.5067,0.6667 -0.8933,1.473 -1.16,2.42 -0.2533,0.9467 -0.38,2.007 -0.38,3.18 -10e-6,1.227 0.14,2.32 0.42,3.28 0.28,0.9467 0.6733,1.747 1.18,2.4 0.5067,0.64 1.12,1.133 1.84,1.48 0.7333,0.3333 1.553,0.5 2.46,0.5 0.8666,0 1.58,-0.1 2.14,-0.3 0.56,-0.2133 1.027,-0.4467 1.4,-0.7 0.3733,-0.2533 0.68,-0.48 0.92,-0.68 0.24,-0.2133 0.48,-0.32 0.72,-0.32 0.3066,0 0.5333,0.1133 0.68,0.34 l 1,1.3 c -0.88,1.08 -1.98,1.873 -3.3,2.38 -1.32,0.4933 -2.713,0.74 -4.18,0.74 -1.267,0 -2.447,-0.2333 -3.54,-0.7 -1.08,-0.4667 -2.02,-1.14 -2.82,-2.02 -0.8,-0.8933 -1.433,-1.987 -1.9,-3.28 -0.4533,-1.293 -0.68,-2.767 -0.68,-4.42 0,-1.507 0.2067,-2.9 0.62,-4.18 0.4267,-1.28 1.04,-2.38 1.84,-3.3 0.8133,-0.9333 1.813,-1.66 3,-2.18 1.187,-0.52 2.547,-0.78 4.08,-0.78 1.413,2e-5 2.667,0.2334 3.76,0.7 1.093,0.4534 2.06,1.1 2.9,1.94 l -0.94,1.28"
         id="path168"
         inkscape:connector-curvature="0" />
      <path
         style="fill:#333333"
         d="m 632.4,259.3 0,-20.26 2.04,0 c 0.3867,2e-5 0.6533,0.0734 0.8,0.22 0.1467,0.1467 0.2467,0.4 0.3,0.76 l 0.24,3.16 c 0.6933,-1.413 1.547,-2.513 2.56,-3.3 1.027,-0.8 2.227,-1.2 3.6,-1.2 0.56,2e-5 1.067,0.0667 1.52,0.2 0.4533,0.12 0.8733,0.2934 1.26,0.52 l -0.46,2.66 c -0.0933,0.3334 -0.3,0.5 -0.62,0.5 -0.1867,1e-5 -0.4733,-0.06 -0.86,-0.18 -0.3867,-0.1333 -0.9267,-0.2 -1.62,-0.2 -1.24,1e-5 -2.28,0.36 -3.12,1.08 -0.8267,0.72 -1.52,1.767 -2.08,3.14 l 0,12.9 -3.56,0"
         id="path170"
         inkscape:connector-curvature="0" />
      <path
         style="fill:#333333"
         d="m 652.5,239.1 0,20.26 -3.56,0 0,-20.26 3.56,0 m 0.8,-6.36 c -10e-6,0.3467 -0.0733,0.6734 -0.22,0.98 -0.1333,0.2934 -0.32,0.56 -0.56,0.8 -0.2267,0.2267 -0.4933,0.4067 -0.8,0.54 -0.3067,0.1334 -0.6333,0.2 -0.98,0.2 -0.3467,2e-5 -0.6733,-0.0666 -0.98,-0.2 -0.2933,-0.1333 -0.56,-0.3133 -0.8,-0.54 -0.2267,-0.24 -0.4067,-0.5066 -0.54,-0.8 -0.1333,-0.3066 -0.2,-0.6333 -0.2,-0.98 0,-0.3466 0.0667,-0.6733 0.2,-0.98 0.1333,-0.32 0.3133,-0.5933 0.54,-0.82 0.24,-0.24 0.5067,-0.4266 0.8,-0.56 0.3067,-0.1333 0.6333,-0.2 0.98,-0.2 0.3467,3e-5 0.6733,0.0667 0.98,0.2 0.3067,0.1334 0.5733,0.32 0.8,0.56 0.24,0.2267 0.4267,0.5 0.56,0.82 0.1467,0.3067 0.22,0.6334 0.22,0.98"
         id="path172"
         inkscape:connector-curvature="0" />
      <path
         style="fill:#333333"
         d="m 658.7,259.3 0,-20.26 2.04,0 c 0.3867,2e-5 0.6533,0.0734 0.8,0.22 0.1467,0.1467 0.2467,0.4 0.3,0.76 l 0.24,3.16 c 0.6933,-1.413 1.547,-2.513 2.56,-3.3 1.027,-0.8 2.227,-1.2 3.6,-1.2 0.56,2e-5 1.067,0.0667 1.52,0.2 0.4533,0.12 0.8733,0.2934 1.26,0.52 l -0.46,2.66 c -0.0934,0.3334 -0.3,0.5 -0.62,0.5 -0.1867,1e-5 -0.4734,-0.06 -0.86,-0.18 -0.3867,-0.1333 -0.9267,-0.2 -1.62,-0.2 -1.24,1e-5 -2.28,0.36 -3.12,1.08 -0.8267,0.72 -1.52,1.767 -2.08,3.14 l 0,12.9 -3.56,0"
         id="path174"
         inkscape:connector-curvature="0" />
      <path
         style="fill:#333333"
         d="m 682.9,238.7 c 1.213,2e-5 2.333,0.2067 3.36,0.62 1.027,0.4 1.913,0.9867 2.66,1.76 0.7466,0.76 1.327,1.707 1.74,2.84 0.4266,1.12 0.64,2.4 0.64,3.84 -2e-5,0.56 -0.06,0.9333 -0.18,1.12 -0.12,0.1867 -0.3467,0.28 -0.68,0.28 l -13.48,0 c 0.0267,1.28 0.2,2.393 0.52,3.34 0.32,0.9467 0.76,1.74 1.32,2.38 0.56,0.6267 1.227,1.1 2,1.42 0.7733,0.3067 1.64,0.46 2.6,0.46 0.8933,0 1.66,-0.1 2.3,-0.3 0.6533,-0.2133 1.213,-0.44 1.68,-0.68 0.4666,-0.24 0.8533,-0.46 1.16,-0.66 0.32,-0.2133 0.5933,-0.32 0.82,-0.32 0.2933,0 0.52,0.1133 0.68,0.34 l 1,1.3 c -0.44,0.5333 -0.9667,1 -1.58,1.4 -0.6134,0.3867 -1.273,0.7067 -1.98,0.96 -0.6934,0.2533 -1.413,0.44 -2.16,0.56 -0.7467,0.1333 -1.487,0.2 -2.22,0.2 -1.4,0 -2.693,-0.2333 -3.88,-0.7 -1.173,-0.48 -2.193,-1.173 -3.06,-2.08 -0.8533,-0.92 -1.52,-2.053 -2,-3.4 -0.48,-1.347 -0.72,-2.893 -0.72,-4.64 0,-1.413 0.2133,-2.733 0.64,-3.96 0.44,-1.227 1.067,-2.287 1.88,-3.18 0.8133,-0.9066 1.807,-1.613 2.98,-2.12 1.173,-0.52 2.493,-0.78 3.96,-0.78 m 0.08,2.62 c -1.72,2e-5 -3.073,0.5 -4.06,1.5 -0.9867,0.9867 -1.6,2.36 -1.84,4.12 l 11.02,0 c -2e-5,-0.8267 -0.1134,-1.58 -0.34,-2.26 -0.2267,-0.6933 -0.56,-1.287 -1,-1.78 -0.44,-0.5066 -0.98,-0.8933 -1.62,-1.16 -0.6267,-0.28 -1.347,-0.42 -2.16,-0.42"
         id="path176"
         inkscape:connector-curvature="0" />
      <path
         style="fill:#333333"
         d="m 711.5,238.7 c 1.213,2e-5 2.333,0.2067 3.36,0.62 1.027,0.4 1.913,0.9867 2.66,1.76 0.7466,0.76 1.327,1.707 1.74,2.84 0.4266,1.12 0.64,2.4 0.64,3.84 -2e-5,0.56 -0.06,0.9333 -0.18,1.12 -0.12,0.1867 -0.3467,0.28 -0.68,0.28 l -13.48,0 c 0.0267,1.28 0.2,2.393 0.52,3.34 0.32,0.9467 0.76,1.74 1.32,2.38 0.56,0.6267 1.227,1.1 2,1.42 0.7733,0.3067 1.64,0.46 2.6,0.46 0.8933,0 1.66,-0.1 2.3,-0.3 0.6533,-0.2133 1.213,-0.44 1.68,-0.68 0.4666,-0.24 0.8533,-0.46 1.16,-0.66 0.32,-0.2133 0.5933,-0.32 0.82,-0.32 0.2933,0 0.52,0.1133 0.68,0.34 l 1,1.3 c -0.44,0.5333 -0.9667,1 -1.58,1.4 -0.6134,0.3867 -1.273,0.7067 -1.98,0.96 -0.6934,0.2533 -1.413,0.44 -2.16,0.56 -0.7467,0.1333 -1.487,0.2 -2.22,0.2 -1.4,0 -2.693,-0.2333 -3.88,-0.7 -1.173,-0.48 -2.193,-1.173 -3.06,-2.08 -0.8533,-0.92 -1.52,-2.053 -2,-3.4 -0.48,-1.347 -0.72,-2.893 -0.72,-4.64 0,-1.413 0.2133,-2.733 0.64,-3.96 0.44,-1.227 1.067,-2.287 1.88,-3.18 0.8133,-0.9066 1.807,-1.613 2.98,-2.12 1.173,-0.52 2.493,-0.78 3.96,-0.78 m 0.08,2.62 c -1.72,2e-5 -3.073,0.5 -4.06,1.5 -0.9867,0.9867 -1.6,2.36 -1.84,4.12 l 11.02,0 c -1e-5,-0.8267 -0.1134,-1.58 -0.34,-2.26 -0.2267,-0.6933 -0.56,-1.287 -1,-1.78 -0.44,-0.5066 -0.98,-0.8933 -1.62,-1.16 -0.6267,-0.28 -1.347,-0.42 -2.16,-0.42"
         id="path178"
         inkscape:connector-curvature="0" />
      <path
         style="fill:#333333"
         d="m 724.5,259.3 0,-20.26 2.12,0 c 0.5067,2e-5 0.8267,0.2467 0.96,0.74 l 0.28,2.2 c 0.88,-0.9733 1.86,-1.76 2.94,-2.36 1.093,-0.6 2.353,-0.9 3.78,-0.9 1.107,2e-5 2.08,0.1867 2.92,0.56 0.8533,0.36 1.56,0.88 2.12,1.56 0.5733,0.6667 1.007,1.473 1.3,2.42 0.2933,0.9467 0.44,1.993 0.44,3.14 l 0,12.9 -3.56,0 0,-12.9 c -10e-6,-1.533 -0.3534,-2.72 -1.06,-3.56 -0.6934,-0.8533 -1.76,-1.28 -3.2,-1.28 -1.053,2e-5 -2.04,0.2534 -2.96,0.76 -0.9067,0.5067 -1.747,1.193 -2.52,2.06 l 0,14.92 -3.56,0"
         id="path180"
         inkscape:connector-curvature="0" />
      <path
         style="fill:#333333"
         d="m 778.6,259.3 -3,0 c -0.3467,0 -0.6267,-0.0867 -0.84,-0.26 -0.2134,-0.1733 -0.3734,-0.3933 -0.48,-0.66 l -2.68,-6.92 -12.86,0 -2.68,6.92 c -0.0933,0.24 -0.2533,0.4533 -0.48,0.64 -0.2267,0.1867 -0.5067,0.28 -0.84,0.28 l -3,0 11.46,-28.66 3.94,0 11.46,28.66 m -18.78,-10.64 10.7,0 -4.5,-11.66 c -0.2934,-0.72 -0.58,-1.62 -0.86,-2.7 -0.1467,0.5467 -0.2933,1.053 -0.44,1.52 -0.1333,0.4534 -0.2667,0.8534 -0.4,1.2 l -4.5,11.64"
         id="path182"
         inkscape:connector-curvature="0" />
      <path
         style="fill:#333333"
         d="m 793.2,242.4 c -0.16,0.2934 -0.4067,0.44 -0.74,0.44 -0.2,1e-5 -0.4267,-0.0733 -0.68,-0.22 -0.2533,-0.1466 -0.5667,-0.3066 -0.94,-0.48 -0.36,-0.1866 -0.7933,-0.3533 -1.3,-0.5 -0.5067,-0.16 -1.107,-0.24 -1.8,-0.24 -0.6,2e-5 -1.14,0.08 -1.62,0.24 -0.48,0.1467 -0.8933,0.3534 -1.24,0.62 -0.3333,0.2667 -0.5933,0.58 -0.78,0.94 -0.1733,0.3467 -0.26,0.7267 -0.26,1.14 0,0.52 0.1467,0.9533 0.44,1.3 0.3067,0.3467 0.7067,0.6467 1.2,0.9 0.4933,0.2533 1.053,0.48 1.68,0.68 0.6267,0.1867 1.267,0.3933 1.92,0.62 0.6667,0.2133 1.313,0.4533 1.94,0.72 0.6267,0.2667 1.187,0.6 1.68,1 0.4933,0.4 0.8866,0.8933 1.18,1.48 0.3066,0.5733 0.46,1.267 0.46,2.08 -1e-5,0.9333 -0.1667,1.8 -0.5,2.6 -0.3334,0.7867 -0.8267,1.473 -1.48,2.06 -0.6533,0.5733 -1.453,1.027 -2.4,1.36 -0.9467,0.3333 -2.04,0.5 -3.28,0.5 -1.413,0 -2.693,-0.2267 -3.84,-0.68 -1.147,-0.4667 -2.12,-1.06 -2.92,-1.78 l 0.84,-1.36 c 0.1067,-0.1733 0.2333,-0.3067 0.38,-0.4 0.1467,-0.0933 0.34,-0.14 0.58,-0.14 0.24,0 0.4933,0.0933 0.76,0.28 0.2667,0.1867 0.5867,0.3933 0.96,0.62 0.3867,0.2267 0.8467,0.4333 1.38,0.62 0.5467,0.1867 1.227,0.28 2.04,0.28 0.6933,0 1.3,-0.0867 1.82,-0.26 0.52,-0.1867 0.9533,-0.4333 1.3,-0.74 0.3467,-0.3067 0.6,-0.66 0.76,-1.06 0.1733,-0.4 0.26,-0.8267 0.26,-1.28 -10e-6,-0.56 -0.1533,-1.02 -0.46,-1.38 -0.2933,-0.3733 -0.6867,-0.6867 -1.18,-0.94 -0.4933,-0.2667 -1.06,-0.4933 -1.7,-0.68 -0.6267,-0.2 -1.273,-0.4067 -1.94,-0.62 -0.6533,-0.2133 -1.3,-0.4533 -1.94,-0.72 -0.6267,-0.28 -1.187,-0.6267 -1.68,-1.04 -0.4933,-0.4133 -0.8933,-0.92 -1.2,-1.52 -0.2933,-0.6133 -0.44,-1.353 -0.44,-2.22 0,-0.7733 0.16,-1.513 0.48,-2.22 0.32,-0.72 0.7867,-1.347 1.4,-1.88 0.6133,-0.5466 1.367,-0.98 2.26,-1.3 0.8933,-0.32 1.913,-0.48 3.06,-0.48 1.333,2e-5 2.527,0.2134 3.58,0.64 1.067,0.4134 1.987,0.9867 2.76,1.72 l -0.8,1.3"
         id="path184"
         inkscape:connector-curvature="0" />
      <path
         style="fill:#333333"
         d="m 812.8,242.7 c -0.1067,0.1467 -0.2134,0.26 -0.32,0.34 -0.1067,0.08 -0.26,0.12 -0.46,0.12 -0.2,1e-5 -0.42,-0.08 -0.66,-0.24 -0.2267,-0.1733 -0.52,-0.36 -0.88,-0.56 -0.36,-0.2 -0.8,-0.38 -1.32,-0.54 -0.5067,-0.1733 -1.133,-0.26 -1.88,-0.26 -0.9867,2e-5 -1.86,0.18 -2.62,0.54 -0.76,0.3467 -1.4,0.8534 -1.92,1.52 -0.5067,0.6667 -0.8933,1.473 -1.16,2.42 -0.2533,0.9467 -0.38,2.007 -0.38,3.18 0,1.227 0.14,2.32 0.42,3.28 0.28,0.9467 0.6733,1.747 1.18,2.4 0.5067,0.64 1.12,1.133 1.84,1.48 0.7333,0.3333 1.553,0.5 2.46,0.5 0.8667,0 1.58,-0.1 2.14,-0.3 0.56,-0.2133 1.027,-0.4467 1.4,-0.7 0.3733,-0.2533 0.68,-0.48 0.92,-0.68 0.24,-0.2133 0.48,-0.32 0.72,-0.32 0.3066,0 0.5333,0.1133 0.68,0.34 l 1,1.3 c -0.88,1.08 -1.98,1.873 -3.3,2.38 -1.32,0.4933 -2.713,0.74 -4.18,0.74 -1.267,0 -2.447,-0.2333 -3.54,-0.7 -1.08,-0.4667 -2.02,-1.14 -2.82,-2.02 -0.8,-0.8933 -1.433,-1.987 -1.9,-3.28 -0.4533,-1.293 -0.68,-2.767 -0.68,-4.42 0,-1.507 0.2067,-2.9 0.62,-4.18 0.4267,-1.28 1.04,-2.38 1.84,-3.3 0.8133,-0.9333 1.813,-1.66 3,-2.18 1.187,-0.52 2.547,-0.78 4.08,-0.78 1.413,2e-5 2.667,0.2334 3.76,0.7 1.093,0.4534 2.06,1.1 2.9,1.94 l -0.94,1.28"
         id="path186"
         inkscape:connector-curvature="0" />
      <path
         style="fill:#333333"
         d="m 821.6,239.1 0,20.26 -3.56,0 0,-20.26 3.56,0 m 0.8,-6.36 c -10e-6,0.3467 -0.0733,0.6734 -0.22,0.98 -0.1333,0.2934 -0.32,0.56 -0.56,0.8 -0.2267,0.2267 -0.4933,0.4067 -0.8,0.54 -0.3067,0.1334 -0.6333,0.2 -0.98,0.2 -0.3467,2e-5 -0.6733,-0.0666 -0.98,-0.2 -0.2933,-0.1333 -0.56,-0.3133 -0.8,-0.54 -0.2267,-0.24 -0.4067,-0.5066 -0.54,-0.8 -0.1333,-0.3066 -0.2,-0.6333 -0.2,-0.98 -1e-5,-0.3466 0.0667,-0.6733 0.2,-0.98 0.1333,-0.32 0.3133,-0.5933 0.54,-0.82 0.24,-0.24 0.5067,-0.4266 0.8,-0.56 0.3067,-0.1333 0.6333,-0.2 0.98,-0.2 0.3467,3e-5 0.6733,0.0667 0.98,0.2 0.3067,0.1334 0.5733,0.32 0.8,0.56 0.24,0.2267 0.4267,0.5 0.56,0.82 0.1467,0.3067 0.22,0.6334 0.22,0.98"
         id="path188"
         inkscape:connector-curvature="0" />
      <path
         style="fill:#333333"
         d="m 831.8,239.1 0,20.26 -3.56,0 0,-20.26 3.56,0 m 0.8,-6.36 c -10e-6,0.3467 -0.0733,0.6734 -0.22,0.98 -0.1333,0.2934 -0.32,0.56 -0.56,0.8 -0.2267,0.2267 -0.4933,0.4067 -0.8,0.54 -0.3067,0.1334 -0.6333,0.2 -0.98,0.2 -0.3467,2e-5 -0.6733,-0.0666 -0.98,-0.2 -0.2933,-0.1333 -0.56,-0.3133 -0.8,-0.54 -0.2267,-0.24 -0.4067,-0.5066 -0.54,-0.8 -0.1333,-0.3066 -0.2,-0.6333 -0.2,-0.98 0,-0.3466 0.0667,-0.6733 0.2,-0.98 0.1333,-0.32 0.3133,-0.5933 0.54,-0.82 0.24,-0.24 0.5067,-0.4266 0.8,-0.56 0.3067,-0.1333 0.6333,-0.2 0.98,-0.2 0.3467,3e-5 0.6733,0.0667 0.98,0.2 0.3067,0.1334 0.5733,0.32 0.8,0.56 0.24,0.2267 0.4267,0.5 0.56,0.82 0.1467,0.3067 0.22,0.6334 0.22,0.98"
         id="path190"
         inkscape:connector-curvature="0" />
      <path
         style="fill:#333333"
         d="m 863.5,245 c -3e-5,2.147 -0.34,4.1 -1.02,5.86 -0.68,1.76 -1.64,3.267 -2.88,4.52 -1.24,1.253 -2.727,2.227 -4.46,2.92 -1.733,0.68 -3.653,1.02 -5.76,1.02 l -10.72,0 0,-28.66 10.72,0 c 2.107,3e-5 4.027,0.3467 5.76,1.04 1.733,0.68 3.22,1.653 4.46,2.92 1.24,1.253 2.2,2.76 2.88,4.52 0.68,1.76 1.02,3.713 1.02,5.86 m -3.98,0 c -3e-5,-1.76 -0.24,-3.333 -0.72,-4.72 -0.48,-1.387 -1.16,-2.56 -2.04,-3.52 -0.88,-0.96 -1.947,-1.693 -3.2,-2.2 -1.253,-0.5066 -2.647,-0.76 -4.18,-0.76 l -6.82,0 0,22.38 6.82,0 c 1.533,0 2.927,-0.2533 4.18,-0.76 1.253,-0.5067 2.32,-1.233 3.2,-2.18 0.88,-0.96 1.56,-2.133 2.04,-3.52 0.48,-1.387 0.72,-2.96 0.72,-4.72"
         id="path192"
         inkscape:connector-curvature="0" />
      <path
         style="fill:#333333"
         d="m 876.5,238.7 c 1.48,2e-5 2.813,0.2467 4,0.74 1.2,0.4934 2.213,1.193 3.04,2.1 0.84,0.9067 1.48,2.007 1.92,3.3 0.4533,1.28 0.68,2.713 0.68,4.3 -2e-5,1.6 -0.2267,3.04 -0.68,4.32 -0.44,1.28 -1.08,2.373 -1.92,3.28 -0.8267,0.9067 -1.84,1.607 -3.04,2.1 -1.187,0.48 -2.52,0.72 -4,0.72 -1.48,0 -2.82,-0.24 -4.02,-0.72 -1.187,-0.4933 -2.2,-1.193 -3.04,-2.1 -0.84,-0.9067 -1.487,-2 -1.94,-3.28 -0.4533,-1.28 -0.68,-2.72 -0.68,-4.32 0,-1.587 0.2267,-3.02 0.68,-4.3 0.4533,-1.293 1.1,-2.393 1.94,-3.3 0.84,-0.9066 1.853,-1.607 3.04,-2.1 1.2,-0.4933 2.54,-0.74 4.02,-0.74 m 0,18.08 c 2,0 3.493,-0.6667 4.48,-2 0.9866,-1.347 1.48,-3.22 1.48,-5.62 -2e-5,-2.413 -0.4934,-4.293 -1.48,-5.64 -0.9867,-1.347 -2.48,-2.02 -4.48,-2.02 -1.013,2e-5 -1.893,0.1734 -2.64,0.52 -0.7467,0.3467 -1.373,0.8467 -1.88,1.5 -0.4933,0.6534 -0.8667,1.46 -1.12,2.42 -0.24,0.9467 -0.36,2.02 -0.36,3.22 -10e-6,1.2 0.12,2.273 0.36,3.22 0.2533,0.9467 0.6267,1.747 1.12,2.4 0.5067,0.64 1.133,1.133 1.88,1.48 0.7466,0.3467 1.627,0.52 2.64,0.52"
         id="path194"
         inkscape:connector-curvature="0" />
      <path
         style="fill:#333333"
         d="m 904.4,242.7 c -0.1067,0.1467 -0.2134,0.26 -0.32,0.34 -0.1067,0.08 -0.26,0.12 -0.46,0.12 -0.2,1e-5 -0.42,-0.08 -0.66,-0.24 -0.2267,-0.1733 -0.52,-0.36 -0.88,-0.56 -0.36,-0.2 -0.8,-0.38 -1.32,-0.54 -0.5067,-0.1733 -1.133,-0.26 -1.88,-0.26 -0.9867,2e-5 -1.86,0.18 -2.62,0.54 -0.76,0.3467 -1.4,0.8534 -1.92,1.52 -0.5067,0.6667 -0.8933,1.473 -1.16,2.42 -0.2533,0.9467 -0.38,2.007 -0.38,3.18 0,1.227 0.14,2.32 0.42,3.28 0.28,0.9467 0.6733,1.747 1.18,2.4 0.5067,0.64 1.12,1.133 1.84,1.48 0.7333,0.3333 1.553,0.5 2.46,0.5 0.8667,0 1.58,-0.1 2.14,-0.3 0.56,-0.2133 1.027,-0.4467 1.4,-0.7 0.3733,-0.2533 0.68,-0.48 0.92,-0.68 0.24,-0.2133 0.48,-0.32 0.72,-0.32 0.3066,0 0.5333,0.1133 0.68,0.34 l 1,1.3 c -0.88,1.08 -1.98,1.873 -3.3,2.38 -1.32,0.4933 -2.713,0.74 -4.18,0.74 -1.267,0 -2.447,-0.2333 -3.54,-0.7 -1.08,-0.4667 -2.02,-1.14 -2.82,-2.02 -0.8,-0.8933 -1.433,-1.987 -1.9,-3.28 -0.4533,-1.293 -0.68,-2.767 -0.68,-4.42 0,-1.507 0.2067,-2.9 0.62,-4.18 0.4267,-1.28 1.04,-2.38 1.84,-3.3 0.8133,-0.9333 1.813,-1.66 3,-2.18 1.187,-0.52 2.547,-0.78 4.08,-0.78 1.413,2e-5 2.667,0.2334 3.76,0.7 1.093,0.4534 2.06,1.1 2.9,1.94 l -0.94,1.28"
         id="path196"
         inkscape:connector-curvature="0" />
      <path
         style="fill:#333333"
         d="m 908.1,257.1 c 0,-0.3467 0.06,-0.6733 0.18,-0.98 0.1333,-0.3067 0.3067,-0.5733 0.52,-0.8 0.2267,-0.2267 0.4933,-0.4067 0.8,-0.54 0.3067,-0.1333 0.6333,-0.2 0.98,-0.2 0.3467,0 0.6733,0.0667 0.98,0.2 0.3067,0.1333 0.5733,0.3133 0.8,0.54 0.2267,0.2267 0.4,0.4933 0.52,0.8 0.1333,0.3067 0.2,0.6333 0.2,0.98 -1e-5,0.36 -0.0667,0.6933 -0.2,1 -0.12,0.2933 -0.2933,0.5533 -0.52,0.78 -0.2267,0.2267 -0.4933,0.4 -0.8,0.52 -0.3067,0.1333 -0.6333,0.2 -0.98,0.2 -0.3467,0 -0.6733,-0.0667 -0.98,-0.2 -0.3067,-0.12 -0.5733,-0.2933 -0.8,-0.52 -0.2133,-0.2267 -0.3867,-0.4867 -0.52,-0.78 -0.12,-0.3067 -0.18,-0.64 -0.18,-1"
         id="path198"
         inkscape:connector-curvature="0" />
    </g>
    <g
       style="font-style:normal;font-variant:normal;font-weight:normal;font-stretch:normal;font-size:48px;line-height:125%;font-family:Lato;text-align:end;letter-spacing:0px;word-spacing:0px;writing-mode:lr-tb;text-anchor:end;fill:#333333"
       id="g200">
      <path
         style="fill:#333333"
         d="m 487.1,317.4 0,17.15 -6.176,0 0,-45.86 13.54,0 c 2.901,5e-5 5.419,0.3414 7.552,1.024 2.155,0.6614 3.936,1.611 5.344,2.848 1.408,1.237 2.453,2.731 3.136,4.48 0.704,1.749 1.056,3.701 1.056,5.856 -4e-5,2.133 -0.3734,4.085 -1.12,5.856 -0.7467,1.771 -1.845,3.296 -3.296,4.576 -1.429,1.28 -3.211,2.283 -5.344,3.008 -2.133,0.704 -4.576,1.056 -7.328,1.056 l -7.36,0 m 0,-4.928 7.36,0 c 1.771,2e-5 3.328,-0.2346 4.672,-0.704 1.365,-0.4693 2.507,-1.12 3.424,-1.952 0.9173,-0.8533 1.611,-1.867 2.08,-3.04 0.4693,-1.173 0.704,-2.464 0.704,-3.872 -3e-5,-2.923 -0.9067,-5.205 -2.72,-6.848 -1.792,-1.643 -4.512,-2.464 -8.16,-2.464 l -7.36,0 0,18.88"
         id="path202"
         inkscape:connector-curvature="0" />
      <path
         style="fill:#333333"
         d="m 523.4,302.1 0,20.67 c -10e-6,2.453 0.5653,4.352 1.696,5.696 1.1307,1.344 2.837,2.016 5.12,2.016 1.664,10e-6 3.232,-0.3947 4.704,-1.184 1.472,-0.7893 2.827,-1.888 4.064,-3.296 l 0,-23.9 5.696,0 0,32.42 -3.392,0 c -0.8107,0 -1.323,-0.3947 -1.536,-1.184 l -0.448,-3.488 c -1.408,1.557 -2.987,2.816 -4.736,3.776 -1.749,0.9387 -3.755,1.408 -6.016,1.408 -1.771,0 -3.339,-0.288 -4.704,-0.864 -1.344,-0.5973 -2.475,-1.429 -3.392,-2.496 -0.9173,-1.067 -1.611,-2.357 -2.08,-3.872 -0.448,-1.515 -0.672,-3.189 -0.672,-5.024 l 0,-20.67 5.696,0"
         id="path204"
         inkscape:connector-curvature="0" />
      <path
         style="fill:#333333"
         d="m 554.3,334.5 0,-47.14 5.728,0 0,19.39 c 1.344,-1.557 2.88,-2.805 4.608,-3.744 1.749,-0.96 3.744,-1.44 5.984,-1.44 1.877,3e-5 3.573,0.352 5.088,1.056 1.515,0.704 2.805,1.76 3.872,3.168 1.067,1.387 1.888,3.115 2.464,5.184 0.576,2.048 0.864,4.416 0.864,7.104 -3e-5,2.389 -0.32,4.619 -0.96,6.688 -0.64,2.048 -1.568,3.829 -2.784,5.344 -1.195,1.493 -2.667,2.677 -4.416,3.552 -1.728,0.8533 -3.68,1.28 -5.856,1.28 -2.091,0 -3.872,-0.4053 -5.344,-1.216 -1.451,-0.8107 -2.72,-1.941 -3.808,-3.392 l -0.288,2.944 c -0.1707,0.8107 -0.6613,1.216 -1.472,1.216 l -3.68,0 m 14.46,-28.38 c -1.856,3e-5 -3.488,0.4267 -4.896,1.28 -1.387,0.8534 -2.667,2.059 -3.84,3.616 l 0,15.68 c 1.024,1.408 2.155,2.4 3.392,2.976 1.259,0.576 2.656,0.864 4.192,0.864 3.029,1e-5 5.355,-1.077 6.976,-3.232 1.621,-2.155 2.432,-5.227 2.432,-9.216 -3e-5,-2.112 -0.192,-3.925 -0.576,-5.44 -0.3627,-1.515 -0.896,-2.752 -1.6,-3.712 -0.704,-0.9813 -1.568,-1.696 -2.592,-2.144 -1.024,-0.448 -2.187,-0.672 -3.488,-0.672"
         id="path206"
         inkscape:connector-curvature="0" />
      <path
         style="fill:#333333"
         d="m 596.2,287.4 0,47.14 -5.696,0 0,-47.14 5.696,0"
         id="path208"
         inkscape:connector-curvature="0" />
      <path
         style="fill:#333333"
         d="m 612.6,302.1 0,32.42 -5.696,0 0,-32.42 5.696,0 m 1.28,-10.18 c -10e-6,0.5547 -0.1173,1.077 -0.352,1.568 -0.2133,0.4694 -0.512,0.896 -0.896,1.28 -0.3627,0.3627 -0.7893,0.6507 -1.28,0.864 -0.4907,0.2134 -1.013,0.32 -1.568,0.32 -0.5547,4e-5 -1.077,-0.1066 -1.568,-0.32 -0.4693,-0.2133 -0.896,-0.5013 -1.28,-0.864 -0.3627,-0.384 -0.6507,-0.8106 -0.864,-1.28 -0.2133,-0.4906 -0.32,-1.013 -0.32,-1.568 0,-0.5546 0.1067,-1.077 0.32,-1.568 0.2133,-0.512 0.5013,-0.9493 0.864,-1.312 0.384,-0.384 0.8107,-0.6826 1.28,-0.896 0.4907,-0.2133 1.013,-0.32 1.568,-0.32 0.5547,5e-5 1.077,0.1067 1.568,0.32 0.4907,0.2134 0.9173,0.512 1.28,0.896 0.384,0.3627 0.6827,0.8 0.896,1.312 0.2347,0.4907 0.352,1.013 0.352,1.568"
         id="path210"
         inkscape:connector-curvature="0" />
      <path
         style="fill:#333333"
         d="m 635.5,301.6 c 1.941,3e-5 3.733,0.3307 5.376,0.992 1.643,0.64 3.061,1.579 4.256,2.816 1.195,1.216 2.123,2.731 2.784,4.544 0.6826,1.792 1.024,3.84 1.024,6.144 -3e-5,0.896 -0.096,1.493 -0.288,1.792 -0.192,0.2987 -0.5547,0.448 -1.088,0.448 l -21.57,0 c 0.0427,2.048 0.32,3.829 0.832,5.344 0.512,1.515 1.216,2.784 2.112,3.808 0.896,1.003 1.963,1.76 3.2,2.272 1.237,0.4907 2.624,0.736 4.16,0.736 1.429,1e-5 2.656,-0.16 3.68,-0.48 1.045,-0.3413 1.941,-0.704 2.688,-1.088 0.7466,-0.384 1.365,-0.736 1.856,-1.056 0.512,-0.3413 0.9493,-0.512 1.312,-0.512 0.4693,10e-6 0.832,0.1813 1.088,0.544 l 1.6,2.08 c -0.704,0.8533 -1.547,1.6 -2.528,2.24 -0.9814,0.6187 -2.037,1.131 -3.168,1.536 -1.109,0.4053 -2.261,0.704 -3.456,0.896 -1.195,0.2133 -2.379,0.32 -3.552,0.32 -2.24,0 -4.309,-0.3733 -6.208,-1.12 -1.877,-0.768 -3.509,-1.877 -4.896,-3.328 -1.365,-1.472 -2.432,-3.285 -3.2,-5.44 -0.768,-2.155 -1.152,-4.629 -1.152,-7.424 0,-2.261 0.3413,-4.373 1.024,-6.336 0.704,-1.963 1.707,-3.659 3.008,-5.088 1.301,-1.451 2.891,-2.581 4.768,-3.392 1.877,-0.832 3.989,-1.248 6.336,-1.248 m 0.128,4.192 c -2.752,3e-5 -4.917,0.8 -6.496,2.4 -1.579,1.579 -2.56,3.776 -2.944,6.592 l 17.63,0 c -2e-5,-1.323 -0.1814,-2.528 -0.544,-3.616 -0.3627,-1.109 -0.896,-2.059 -1.6,-2.848 -0.704,-0.8106 -1.568,-1.429 -2.592,-1.856 -1.003,-0.448 -2.155,-0.672 -3.456,-0.672"
         id="path212"
         inkscape:connector-curvature="0" />
      <path
         style="fill:#333333"
         d="m 656.1,334.5 0,-32.42 3.264,0 c 0.6187,3e-5 1.045,0.1174 1.28,0.352 0.2347,0.2347 0.3947,0.64 0.48,1.216 l 0.384,5.056 c 1.109,-2.261 2.475,-4.021 4.096,-5.28 1.643,-1.28 3.563,-1.92 5.76,-1.92 0.896,3e-5 1.707,0.1067 2.432,0.32 0.7253,0.192 1.397,0.4694 2.016,0.832 l -0.736,4.256 c -0.1494,0.5334 -0.48,0.8 -0.992,0.8 -0.2987,3e-5 -0.7574,-0.096 -1.376,-0.288 -0.6187,-0.2133 -1.483,-0.32 -2.592,-0.32 -1.984,3e-5 -3.648,0.576 -4.992,1.728 -1.323,1.152 -2.432,2.827 -3.328,5.024 l 0,20.64 -5.696,0"
         id="path214"
         inkscape:connector-curvature="0" />
      <path
         style="fill:#333333"
         d="m 694.2,345.5 0,-43.39 3.392,0 c 0.8107,3e-5 1.323,0.3947 1.536,1.184 l 0.48,3.84 c 1.387,-1.685 2.965,-3.04 4.736,-4.064 1.792,-1.024 3.851,-1.536 6.176,-1.536 1.856,3e-5 3.541,0.3627 5.056,1.088 1.515,0.704 2.805,1.76 3.872,3.168 1.067,1.387 1.888,3.115 2.464,5.184 0.576,2.069 0.864,4.448 0.864,7.136 -3e-5,2.389 -0.32,4.619 -0.96,6.688 -0.64,2.048 -1.557,3.829 -2.752,5.344 -1.195,1.493 -2.667,2.677 -4.416,3.552 -1.728,0.8533 -3.68,1.28 -5.856,1.28 -2.005,0 -3.723,-0.3307 -5.152,-0.992 -1.408,-0.6613 -2.656,-1.6 -3.744,-2.816 l 0,14.34 -5.696,0 m 14.43,-39.36 c -1.856,3e-5 -3.488,0.4267 -4.896,1.28 -1.387,0.8534 -2.667,2.059 -3.84,3.616 l 0,15.68 c 1.045,1.408 2.187,2.4 3.424,2.976 1.259,0.576 2.656,0.864 4.192,0.864 3.008,10e-6 5.323,-1.077 6.944,-3.232 1.621,-2.155 2.432,-5.227 2.432,-9.216 -3e-5,-2.112 -0.192,-3.925 -0.576,-5.44 -0.3627,-1.515 -0.896,-2.752 -1.6,-3.712 -0.704,-0.9813 -1.568,-1.696 -2.592,-2.144 -1.024,-0.448 -2.187,-0.672 -3.488,-0.672"
         id="path216"
         inkscape:connector-curvature="0" />
      <path
         style="fill:#333333"
         d="m 753.4,334.5 -2.528,0 c -0.5547,0 -1.003,-0.0853 -1.344,-0.256 -0.3414,-0.1707 -0.5654,-0.5333 -0.672,-1.088 l -0.64,-3.008 c -0.8534,0.768 -1.685,1.461 -2.496,2.08 -0.8107,0.5973 -1.664,1.109 -2.56,1.536 -0.896,0.4053 -1.856,0.7147 -2.88,0.928 -1.003,0.2133 -2.123,0.32 -3.36,0.32 -1.259,0 -2.443,-0.1707 -3.552,-0.512 -1.088,-0.3627 -2.037,-0.896 -2.848,-1.6 -0.8107,-0.704 -1.461,-1.589 -1.952,-2.656 -0.4693,-1.088 -0.704,-2.368 -0.704,-3.84 0,-1.28 0.352,-2.507 1.056,-3.68 0.704,-1.195 1.835,-2.251 3.392,-3.168 1.579,-0.9173 3.637,-1.664 6.176,-2.24 2.539,-0.5973 5.643,-0.9386 9.312,-1.024 l 0,-2.528 c -2e-5,-2.517 -0.544,-4.416 -1.632,-5.696 -1.067,-1.301 -2.656,-1.952 -4.768,-1.952 -1.387,3e-5 -2.56,0.1814 -3.52,0.544 -0.9387,0.3414 -1.76,0.736 -2.464,1.184 -0.6827,0.4267 -1.28,0.8214 -1.792,1.184 -0.4907,0.3414 -0.9813,0.512 -1.472,0.512 -0.384,3e-5 -0.7253,-0.096 -1.024,-0.288 -0.2773,-0.2133 -0.5013,-0.4693 -0.672,-0.768 l -1.024,-1.824 c 1.792,-1.728 3.723,-3.019 5.792,-3.872 2.069,-0.8533 4.363,-1.28 6.88,-1.28 1.813,3e-5 3.424,0.2987 4.832,0.896 1.408,0.5974 2.592,1.429 3.552,2.496 0.96,1.067 1.685,2.357 2.176,3.872 0.4906,1.515 0.736,3.179 0.736,4.992 l 0,20.74 m -14.78,-3.488 c 1.003,10e-6 1.92,-0.096 2.752,-0.288 0.832,-0.2133 1.611,-0.5013 2.336,-0.864 0.7466,-0.384 1.451,-0.8427 2.112,-1.376 0.6826,-0.5333 1.344,-1.141 1.984,-1.824 l 0,-6.752 c -2.624,0.0854 -4.853,0.2987 -6.688,0.64 -1.835,0.32 -3.328,0.7467 -4.48,1.28 -1.152,0.5334 -1.995,1.163 -2.528,1.888 -0.512,0.7253 -0.768,1.536 -0.768,2.432 -1e-5,0.8533 0.1387,1.589 0.416,2.208 0.2773,0.6187 0.6507,1.131 1.12,1.536 0.4693,0.384 1.024,0.672 1.664,0.864 0.64,0.1707 1.333,0.256 2.08,0.256"
         id="path218"
         inkscape:connector-curvature="0" />
      <path
         style="fill:#333333"
         d="m 762.1,334.5 0,-32.42 3.264,0 c 0.6187,3e-5 1.045,0.1174 1.28,0.352 0.2347,0.2347 0.3947,0.64 0.48,1.216 l 0.384,5.056 c 1.109,-2.261 2.475,-4.021 4.096,-5.28 1.643,-1.28 3.563,-1.92 5.76,-1.92 0.896,3e-5 1.707,0.1067 2.432,0.32 0.7253,0.192 1.397,0.4694 2.016,0.832 l -0.736,4.256 c -0.1494,0.5334 -0.48,0.8 -0.992,0.8 -0.2987,3e-5 -0.7574,-0.096 -1.376,-0.288 -0.6187,-0.2133 -1.483,-0.32 -2.592,-0.32 -1.984,3e-5 -3.648,0.576 -4.992,1.728 -1.323,1.152 -2.432,2.827 -3.328,5.024 l 0,20.64 -5.696,0"
         id="path220"
         inkscape:connector-curvature="0" />
      <path
         style="fill:#333333"
         d="m 797.7,335.1 c -2.56,0 -4.533,-0.7147 -5.92,-2.144 -1.365,-1.429 -2.048,-3.488 -2.048,-6.176 l 0,-19.84 -3.904,0 c -0.3413,3e-5 -0.6293,-0.096 -0.864,-0.288 -0.2347,-0.2133 -0.352,-0.5333 -0.352,-0.96 l 0,-2.272 5.312,-0.672 1.312,-10.02 c 0.0427,-0.32 0.1813,-0.576 0.416,-0.768 0.2347,-0.2133 0.5333,-0.32 0.896,-0.32 l 2.88,0 0,11.17 9.28,0 0,4.128 -9.28,0 0,19.46 c -10e-6,1.365 0.3307,2.379 0.992,3.04 0.6613,0.6613 1.515,0.992 2.56,0.992 0.5973,10e-6 1.109,-0.0747 1.536,-0.224 0.448,-0.1707 0.832,-0.352 1.152,-0.544 0.32,-0.192 0.5866,-0.3627 0.8,-0.512 0.2346,-0.1707 0.4373,-0.256 0.608,-0.256 0.2986,10e-6 0.5653,0.1813 0.8,0.544 l 1.664,2.72 c -0.9814,0.9173 -2.165,1.643 -3.552,2.176 -1.387,0.512 -2.816,0.768 -4.288,0.768"
         id="path222"
         inkscape:connector-curvature="0" />
      <path
         style="fill:#333333"
         d="m 824.9,301.6 c 2.368,3e-5 4.501,0.3947 6.4,1.184 1.92,0.7894 3.541,1.909 4.864,3.36 1.344,1.451 2.368,3.211 3.072,5.28 0.7253,2.048 1.088,4.341 1.088,6.88 -3e-5,2.56 -0.3627,4.864 -1.088,6.912 -0.704,2.048 -1.728,3.797 -3.072,5.248 -1.323,1.451 -2.944,2.571 -4.864,3.36 -1.899,0.768 -4.032,1.152 -6.4,1.152 -2.368,0 -4.512,-0.384 -6.432,-1.152 -1.899,-0.7893 -3.52,-1.909 -4.864,-3.36 -1.344,-1.451 -2.379,-3.2 -3.104,-5.248 -0.7253,-2.048 -1.088,-4.352 -1.088,-6.912 0,-2.539 0.3627,-4.832 1.088,-6.88 0.7253,-2.069 1.76,-3.829 3.104,-5.28 1.344,-1.451 2.965,-2.571 4.864,-3.36 1.92,-0.7893 4.064,-1.184 6.432,-1.184 m 0,28.93 c 3.2,1e-5 5.589,-1.067 7.168,-3.2 1.579,-2.155 2.368,-5.152 2.368,-8.992 -3e-5,-3.861 -0.7894,-6.869 -2.368,-9.024 -1.5786,-2.155 -3.968,-3.232 -7.168,-3.232 -1.621,3e-5 -3.029,0.2774 -4.224,0.832 -1.195,0.5547 -2.197,1.355 -3.008,2.4 -0.7893,1.045 -1.387,2.336 -1.792,3.872 -0.384,1.515 -0.576,3.232 -0.576,5.152 -10e-6,1.92 0.192,3.637 0.576,5.152 0.4053,1.515 1.003,2.795 1.792,3.84 0.8107,1.024 1.813,1.813 3.008,2.368 1.195,0.5547 2.603,0.832 4.224,0.832"
         id="path224"
         inkscape:connector-curvature="0" />
      <path
         style="fill:#333333"
         d="m 852.3,302.1 0,20.67 c -10e-6,2.453 0.5653,4.352 1.696,5.696 1.1307,1.344 2.837,2.016 5.12,2.016 1.664,10e-6 3.232,-0.3947 4.704,-1.184 1.472,-0.7893 2.827,-1.888 4.064,-3.296 l 0,-23.9 5.696,0 0,32.42 -3.392,0 c -0.8107,0 -1.323,-0.3947 -1.536,-1.184 l -0.448,-3.488 c -1.408,1.557 -2.987,2.816 -4.736,3.776 -1.749,0.9387 -3.755,1.408 -6.016,1.408 -1.771,0 -3.339,-0.288 -4.704,-0.864 -1.344,-0.5973 -2.475,-1.429 -3.392,-2.496 -0.9173,-1.067 -1.611,-2.357 -2.08,-3.872 -0.448,-1.515 -0.672,-3.189 -0.672,-5.024 l 0,-20.67 5.696,0"
         id="path226"
         inkscape:connector-curvature="0" />
      <path
         style="fill:#333333"
         d="m 892.8,335.1 c -2.56,0 -4.533,-0.7147 -5.92,-2.144 -1.365,-1.429 -2.048,-3.488 -2.048,-6.176 l 0,-19.84 -3.904,0 c -0.3413,3e-5 -0.6293,-0.096 -0.864,-0.288 -0.2347,-0.2133 -0.352,-0.5333 -0.352,-0.96 l 0,-2.272 5.312,-0.672 1.312,-10.02 c 0.0427,-0.32 0.1813,-0.576 0.416,-0.768 0.2347,-0.2133 0.5333,-0.32 0.896,-0.32 l 2.88,0 0,11.17 9.28,0 0,4.128 -9.28,0 0,19.46 c -10e-6,1.365 0.3307,2.379 0.992,3.04 0.6613,0.6613 1.515,0.992 2.56,0.992 0.5973,10e-6 1.109,-0.0747 1.536,-0.224 0.448,-0.1707 0.832,-0.352 1.152,-0.544 0.32,-0.192 0.5866,-0.3627 0.8,-0.512 0.2346,-0.1707 0.4373,-0.256 0.608,-0.256 0.2986,10e-6 0.5653,0.1813 0.8,0.544 l 1.664,2.72 c -0.9814,0.9173 -2.165,1.643 -3.552,2.176 -1.387,0.512 -2.816,0.768 -4.288,0.768"
         id="path228"
         inkscape:connector-curvature="0" />
      <path
         style="fill:#333333"
         d="m 928.3,288.7 0,18.3 c -10e-6,0.96 -0.0214,1.899 -0.064,2.816 -0.0213,0.9174 -0.064,1.845 -0.128,2.784 -0.064,0.9174 -0.1494,1.867 -0.256,2.848 -0.0853,0.96 -0.192,1.995 -0.32,3.104 l -3.872,0 c -0.128,-1.109 -0.2453,-2.144 -0.352,-3.104 -0.0853,-0.9813 -0.16,-1.931 -0.224,-2.848 -0.064,-0.9386 -0.1173,-1.867 -0.16,-2.784 -0.0213,-0.9173 -0.032,-1.856 -0.032,-2.816 l 0,-18.3 5.408,0 m -6.784,42.34 c -10e-6,-0.5547 0.096,-1.077 0.288,-1.568 0.2133,-0.4907 0.4907,-0.9173 0.832,-1.28 0.3627,-0.3627 0.7893,-0.6507 1.28,-0.864 0.4907,-0.2133 1.013,-0.32 1.568,-0.32 0.5547,1e-5 1.077,0.1067 1.568,0.32 0.4906,0.2133 0.9173,0.5013 1.28,0.864 0.3626,0.3627 0.64,0.7893 0.832,1.28 0.2133,0.4907 0.32,1.013 0.32,1.568 -1e-5,0.576 -0.1067,1.109 -0.32,1.6 -0.192,0.4693 -0.4694,0.8853 -0.832,1.248 -0.3627,0.3627 -0.7894,0.64 -1.28,0.832 -0.4907,0.2133 -1.013,0.32 -1.568,0.32 -0.5547,0 -1.077,-0.1067 -1.568,-0.32 -0.4907,-0.192 -0.9173,-0.4693 -1.28,-0.832 -0.3413,-0.3627 -0.6187,-0.7787 -0.832,-1.248 -0.192,-0.4907 -0.288,-1.024 -0.288,-1.6"
         id="path230"
         inkscape:connector-curvature="0" />
    </g>
  </g>
</svg>
