<?xml version="1.0" encoding="UTF-8" standalone="no"?>
<!-- Created with Inkscape (http://www.inkscape.org/) -->

<svg
   xmlns:dc="http://purl.org/dc/elements/1.1/"
   xmlns:cc="http://creativecommons.org/ns#"
   xmlns:rdf="http://www.w3.org/1999/02/22-rdf-syntax-ns#"
   xmlns:svg="http://www.w3.org/2000/svg"
   xmlns="http://www.w3.org/2000/svg"
   xmlns:sodipodi="http://sodipodi.sourceforge.net/DTD/sodipodi-0.dtd"
   xmlns:inkscape="http://www.inkscape.org/namespaces/inkscape"
   width="1280"
   height="720"
   id="svg3165"
   version="1.1"
   inkscape:version="0.48.5 r10040"
   sodipodi:docname="face-to-face.svg">
  <defs
     id="defs3167" />
  <sodipodi:namedview
     id="base"
     pagecolor="#ffffff"
     bordercolor="#666666"
     borderopacity="1.0"
     inkscape:pageopacity="0.0"
     inkscape:pageshadow="2"
     inkscape:zoom="0.80240837"
     inkscape:cx="814.97023"
     inkscape:cy="265.76654"
     inkscape:document-units="px"
     inkscape:current-layer="layer1"
     showgrid="false"
     width="1280px"
     showborder="true"
     inkscape:window-width="1920"
     inkscape:window-height="1014"
     inkscape:window-x="0"
     inkscape:window-y="27"
     inkscape:window-maximized="1" />
  <metadata
     id="metadata3170">
    <rdf:RDF>
      <cc:Work
         rdf:about="">
        <dc:format>image/svg+xml</dc:format>
        <dc:type
           rdf:resource="http://purl.org/dc/dcmitype/StillImage" />
        <dc:title></dc:title>
      </cc:Work>
    </rdf:RDF>
  </metadata>
  <g
     inkscape:label="Layer 1"
     inkscape:groupmode="layer"
     id="layer1"
     transform="translate(0,-332.36218)">
    <g
       id="g4075"
       transform="translate(58.372551,0)">
      <g
         id="g4052">
        <path
           style="fill:none;stroke:#000000;stroke-width:2;stroke-linecap:butt;stroke-linejoin:miter;stroke-miterlimit:4;stroke-opacity:1;stroke-dasharray:none"
           d="M 585.38363,685.8209 C 487.85987,686.83477 411.60118,613.29216 370.82805,559.62836 l 7.59416,-76.84948 34.47002,-2.55493 C 322.80327,325.28286 205.08697,439.23116 276.30597,554.02926 l -1.71512,21.17343 c -109.00033,46.04385 -249.889744,85.09829 -43.14864,200.34572 -5.8363,15.37497 -13.90741,20.69335 -22.71183,22.71183 11.76784,3.67606 18.4126,17.02904 42.6241,-2.79957 l -23.27175,206.40153 257.98423,-4.47934 -56.06204,-61.41653 c 1.05829,-80.3539 13.42508,-156.93831 2.79957,-241.1868 12.52853,35.63297 91.86099,61.20042 148.34447,69.81524"
           id="path3952"
           inkscape:connector-curvature="0"
           sodipodi:nodetypes="cccccccccccccc" />
        <path
           style="fill:none;stroke:#000000;stroke-width:2;stroke-linecap:butt;stroke-linejoin:miter;stroke-miterlimit:4;stroke-opacity:1;stroke-dasharray:none"
           d="m 354.12607,1001.2809 0,-169.0938"
           id="path3954"
           inkscape:connector-curvature="0" />
        <path
           style="fill:none;stroke:#000000;stroke-width:2;stroke-linecap:butt;stroke-linejoin:miter;stroke-miterlimit:4;stroke-opacity:1;stroke-dasharray:none"
           d="m 543.72684,718.52471 c 9.71397,6.55908 20.95581,11.28468 38.07407,8.95863"
           id="path3956"
           inkscape:connector-curvature="0"
           sodipodi:nodetypes="cc" />
        <path
           style="fill:none;stroke:#000000;stroke-width:2;stroke-linecap:butt;stroke-linejoin:miter;stroke-miterlimit:4;stroke-opacity:1;stroke-dasharray:none"
           d="m 290.08616,464.46439 c 4.48696,43.00074 26.80348,52.51007 83.42706,55.29113"
           id="path3958"
           inkscape:connector-curvature="0"
           sodipodi:nodetypes="cc" />
        <path
           sodipodi:type="arc"
           style="color:#000000;fill:#000000;stroke:none;stroke-width:0.11679739;marker:none;visibility:visible;display:inline;overflow:visible;enable-background:accumulate"
           id="path3106-5"
           sodipodi:cx="212.5"
           sodipodi:cy="908.36218"
           sodipodi:rx="0.5"
           sodipodi:ry="1"
           d="m 213,908.36218 c 0,0.55229 -0.22386,1 -0.5,1 -0.27614,0 -0.5,-0.44771 -0.5,-1 0,-0.55228 0.22386,-1 0.5,-1 0.27614,0 0.5,0.44772 0.5,1 z"
           transform="matrix(12.108263,0,0,6.0541315,-2227.7683,-5042.019)" />
      </g>
      <g
         transform="translate(-34,0)"
         id="g4066">
        <path
           style="fill:none;stroke:#000000;stroke-width:2;stroke-linecap:butt;stroke-linejoin:miter;stroke-miterlimit:4;stroke-opacity:1;stroke-dasharray:none"
           d="m 875.21865,668.39567 c 0,0 13.01777,-55.10356 53.79089,-108.76736 l -7.59415,-76.84948 -34.47003,-2.55493 c 90.08896,-154.94109 207.80524,-40.99279 136.58624,73.80531 l 1.7151,21.17343 c 19.3026,73.41933 38.6016,146.83865 23.2364,220.25798 l 23.2718,206.40148 -257.98426,-4.47929 56.06203,-61.41653 c -1.05829,-80.3539 -13.42508,-99.61622 -2.79957,-183.86471"
           id="path3952-1"
           inkscape:connector-curvature="0"
           sodipodi:nodetypes="ccccccccccc" />
        <path
           style="fill:none;stroke:#000000;stroke-width:2;stroke-linecap:butt;stroke-linejoin:miter;stroke-miterlimit:4;stroke-opacity:1;stroke-dasharray:none"
           d="m 945.71152,1001.2808 0,-169.09375"
           id="path3954-5"
           inkscape:connector-curvature="0" />
        <path
           style="fill:none;stroke:#000000;stroke-width:2;stroke-linecap:butt;stroke-linejoin:miter;stroke-miterlimit:4;stroke-opacity:1;stroke-dasharray:none"
           d="m 790.04658,729.00572 c -9.71397,6.55908 -23.12263,6.951 -40.24089,4.62495"
           id="path3956-9"
           inkscape:connector-curvature="0"
           sodipodi:nodetypes="cc" />
        <path
           style="fill:none;stroke:#000000;stroke-width:2;stroke-linecap:butt;stroke-linejoin:miter;stroke-miterlimit:4;stroke-opacity:1;stroke-dasharray:none"
           d="m 1001.5626,464.46434 c -4.487,43.00074 -18.61465,52.51007 -75.23823,55.29113"
           id="path3958-9"
           inkscape:connector-curvature="0"
           sodipodi:nodetypes="cc" />
        <path
           sodipodi:type="arc"
           style="color:#000000;fill:#000000;stroke:none;stroke-width:1;marker:none;visibility:visible;display:inline;overflow:visible;enable-background:accumulate"
           id="path3106-5-9"
           sodipodi:cx="212.5"
           sodipodi:cy="908.36218"
           sodipodi:rx="0.5"
           sodipodi:ry="1"
           d="m 213,908.36218 c 0,0.55229 -0.22386,1 -0.5,1 -0.27614,0 -0.5,-0.44771 -0.5,-1 0,-0.55228 0.22386,-1 0.5,-1 0.27614,0 0.5,0.44772 0.5,1 z"
           transform="matrix(-12.108263,0,0,6.0541315,3527.6059,-5042.0189)" />
        <path
           style="fill:none;stroke:#000000;stroke-width:2;stroke-linecap:butt;stroke-linejoin:miter;stroke-miterlimit:4;stroke-opacity:1;stroke-dasharray:none"
           d="m 954.81554,597.44218 c -50.5187,61.34459 -98.31108,96.8734 -206.96138,96.30878 l 0,0"
           id="path3073"
           inkscape:connector-curvature="0"
           sodipodi:nodetypes="ccc" />
        <path
           sodipodi:nodetypes="ccc"
           inkscape:connector-curvature="0"
           id="path3075"
           d="m 957.88923,684.16072 c -50.5187,61.34459 -123.77515,93.20425 -206.96138,90.53055 l 0,0"
           style="fill:none;stroke:#000000;stroke-width:2;stroke-linecap:butt;stroke-linejoin:miter;stroke-miterlimit:4;stroke-opacity:1;stroke-dasharray:none" />
      </g>
    </g>
  </g>
</svg>
