<!-- Created with Inkscape (http://www.inkscape.org/) -->
<svg xmlns:rdf="http://www.w3.org/1999/02/22-rdf-syntax-ns#" xmlns="http://www.w3.org/2000/svg" version="1.1" xmlns:cc="http://creativecommons.org/ns#" xmlns:dc="http://purl.org/dc/elements/1.1/" viewBox="0 0 1280 720">
 <metadata>
  <rdf:RDF>
   <cc:Work rdf:about="">
    <dc:format>image/svg+xml</dc:format>
    <dc:type rdf:resource="http://purl.org/dc/dcmitype/StillImage"/>
    <dc:title/>
   </cc:Work>
  </rdf:RDF>
 </metadata>
 <g transform="translate(0,-332.36218)">
  <g transform="matrix(1.3987258,0,0,1.3987258,-113.53486,-403.88931)">
   <path style="stroke-linejoin:miter;stroke:#000000;stroke-linecap:butt;stroke-miterlimit:4;stroke-dasharray:none;stroke-width:1.42987275;fill:none;" d="m388.1,1012,122.8-2.134-26.68-29.26c1.216-38.22,10.39-75.65,1.333-114.9,2.487,11.17,2.98,20.79,4.427,30.92,91.21-41.86-3.913-82.74-33.93-89.74l1.807-13.96c-14.96,0.377-24.16-6.655-28.65-20.99,9.266,5.961,18.47,12.21,29.99,8.021l0.4693-15.23,16.41-1.217c-42.9-73.9-98.9-19.6-65,35.1l-0.8164,10.09c-51.88,21.93-116.8,41.84-18.37,96.75-0.606,4.718-4.013,6.471-8.204,6.564,5.167,7.398,10.5,7.155,15.51,1.619z"/>
   <path style="stroke-linejoin:miter;stroke:#000000;stroke-linecap:butt;stroke-miterlimit:4;stroke-dasharray:none;stroke-width:1.42987275;fill:none;" d="m448.1,1012,0-80.55"/>
   <path style="enable-background:accumulate;color:#000000;fill:#000000;" d="m213,908.4c0,0.5523-0.2239,1-0.5,1s-0.5-0.4477-0.5-1,0.2239-1,0.5-1,0.5,0.4477,0.5,1z" transform="matrix(5.7632782,0,0,2.8841279,-780.79385,-1867.2492)"/>
  </g>
  <g transform="matrix(1.3987258,0,0,1.3987258,-99.53486,-403.88931)">
   <path d="m706.5,1012-122.8-2.134,26.68-29.26c-1.2-38.3-10.4-75.7-1.4-115-2.487,11.17-2.98,20.79-4.427,30.92-91.21-41.86,3.913-82.74,33.93-89.74l-1.807-13.96c14.96,0.377,24.16-6.655,28.65-20.99-2.034,11.56-13.1,22.16-28.59,21.24l-1.869-28.45-16.41-1.217c42.88-73.81,98.91-19.53,65.01,35.16l0.8164,10.09c51.88,21.93,116.8,41.84,18.37,96.75,0.606,4.718,4.013,6.471,8.204,6.564-5.167,7.398-10.5,7.155-15.51,1.619z" style="stroke-linejoin:miter;stroke:#000000;stroke-linecap:butt;stroke-miterlimit:4;stroke-dasharray:none;stroke-width:1.42987275;fill:none;"/>
   <path d="m646.5,1012,0-80.55" style="stroke-linejoin:miter;stroke:#000000;stroke-linecap:butt;stroke-miterlimit:4;stroke-dasharray:none;stroke-width:1.42987275;fill:none;"/>
   <path style="enable-background:accumulate;color:#000000;fill:#000000;" d="m213,908.4c0,0.5523-0.2239,1-0.5,1s-0.5-0.4477-0.5-1,0.2239-1,0.5-1,0.5,0.4477,0.5,1z" transform="matrix(-5.7632782,0,0,2.8841279,1875.4114,-1867.2492)"/>
  </g>
  <path d="m423.8,548.4,166.2,0c19.91,21.98-0.5343,86.2-2.76,95.95,0.0725-0.0564,0.1012-0.1212,0.1737-0.1776,25.42-19.77,47.94-72.05,47.59-95.77h220c40-10,40-115,0-125h-430c-40,10-40,115-1.24,125z" style="enable-background:accumulate;color:#000000;stroke:#000000;stroke-dasharray:none;stroke-miterlimit:4;stroke-width:1.99999988;fill:#ffffff;"/>
  <g style="font-size:48px;font-family:Lato;writing-mode:lr-tb;fill:#000000;letter-spacing:0px;text-anchor:start;line-height:125%;word-spacing:0px;font-stretch:normal;font-variant:normal;font-weight:normal;font-style:normal;text-align:start;">
   <path style="" d="m412.4,468,3.864,0c0.416,0.00004,0.76,0.104,1.032,0.312s0.456,0.472,0.552,0.792l7.104,23.9c0.128,0.432,0.24,0.896,0.336,1.392,0.112,0.496,0.216,1.016,0.312,1.56,0.112-0.544,0.224-1.064,0.336-1.56,0.112-0.512,0.24-0.976,0.384-1.392l8.088-23.9c0.096-0.272,0.28-0.52,0.552-0.744,0.288-0.24,0.632-0.36,1.032-0.36h1.344c0.416,0.00004,0.752,0.104,1.008,0.312,0.272,0.208,0.464,0.472,0.576,0.792l8.04,23.9c0.288,0.832,0.544,1.784,0.768,2.856,0.096-0.528,0.184-1.032,0.264-1.512s0.184-0.928,0.312-1.344l7.128-23.9c0.08-0.288,0.256-0.544,0.528-0.768,0.288-0.224,0.632-0.336,1.032-0.336h3.624l-10.73,34.39h-4.176l-8.712-26.23c-0.176-0.496-0.336-1.072-0.48-1.728-0.08,0.32-0.16,0.632-0.24,0.936-0.064,0.288-0.136,0.552-0.216,0.792l-8.76,26.23h-4.176l-10.73-34.39"/>
   <path style="" d="m480.2,502.4-1.896,0c-0.416,0-0.752-0.064-1.008-0.192s-0.424-0.4-0.504-0.816l-0.48-2.256c-0.64,0.576-1.264,1.096-1.872,1.56-0.608,0.448-1.248,0.832-1.92,1.152-0.672,0.304-1.392,0.536-2.16,0.696-0.752,0.16-1.592,0.24-2.52,0.24-0.944,0-1.832-0.128-2.664-0.384-0.816-0.272-1.528-0.672-2.136-1.2s-1.096-1.192-1.464-1.992c-0.352-0.816-0.528-1.776-0.528-2.88,0-0.96,0.264-1.88,0.792-2.76,0.528-0.896,1.376-1.688,2.544-2.376,1.184-0.688,2.728-1.248,4.632-1.68,1.904-0.448,4.232-0.704,6.984-0.768v-1.896c-0.00002-1.888-0.408-3.312-1.224-4.272-0.8-0.976-1.992-1.464-3.576-1.464-1.04,0.00002-1.92,0.136-2.64,0.408-0.704,0.256-1.32,0.552-1.848,0.888-0.512,0.32-0.96,0.616-1.344,0.888-0.368,0.256-0.736,0.384-1.104,0.384-0.288,0.00002-0.544-0.072-0.768-0.216-0.208-0.16-0.376-0.352-0.504-0.576l-0.768-1.368c1.344-1.296,2.792-2.264,4.344-2.904s3.272-0.96,5.16-0.96c1.36,0.00003,2.568,0.224,3.624,0.672s1.944,1.072,2.664,1.872,1.264,1.768,1.632,2.904,0.552,2.384,0.552,3.744v15.55m-11.09-2.616c0.752,0.00001,1.44-0.072,2.064-0.216,0.624-0.16,1.208-0.376,1.752-0.648,0.56-0.288,1.088-0.632,1.584-1.032,0.512-0.4,1.008-0.856,1.488-1.368v-5.064c-1.968,0.064-3.64,0.224-5.016,0.48-1.376,0.24-2.496,0.56-3.36,0.96s-1.496,0.872-1.896,1.416c-0.384,0.544-0.576,1.152-0.576,1.824-0.00001,0.64,0.104,1.192,0.312,1.656s0.488,0.848,0.84,1.152c0.352,0.288,0.768,0.504,1.248,0.648,0.48,0.128,1,0.192,1.56,0.192"/>
   <path style="" d="m491.5,478.1,0,24.31-4.272,0,0-24.31,4.272,0m0.96-7.632c-0.00001,0.416-0.088,0.808-0.264,1.176-0.16,0.352-0.384,0.672-0.672,0.96-0.272,0.272-0.592,0.488-0.96,0.648s-0.76,0.24-1.176,0.24c-0.416,0.00003-0.808-0.08-1.176-0.24-0.352-0.16-0.672-0.376-0.96-0.648-0.272-0.288-0.488-0.608-0.648-0.96-0.16-0.368-0.24-0.76-0.24-1.176s0.08-0.808,0.24-1.176c0.16-0.384,0.376-0.712,0.648-0.984,0.288-0.288,0.608-0.512,0.96-0.672,0.368-0.16,0.76-0.24,1.176-0.24,0.416,0.00004,0.808,0.08,1.176,0.24s0.688,0.384,0.96,0.672c0.288,0.272,0.512,0.6,0.672,0.984,0.176,0.368,0.264,0.76,0.264,1.176"/>
   <path style="" d="m506.4,502.7c-1.92,0-3.4-0.536-4.44-1.608-1.024-1.072-1.536-2.616-1.536-4.632v-14.88h-2.928c-0.256,0.00002-0.472-0.072-0.648-0.216-0.176-0.16-0.264-0.4-0.264-0.72v-1.704l3.984-0.504,0.984-7.512c0.032-0.24,0.136-0.432,0.312-0.576,0.176-0.16,0.4-0.24,0.672-0.24h2.16v8.376h6.96v3.096h-6.96v14.59c-0.00001,1.024,0.248,1.784,0.744,2.28s1.136,0.744,1.92,0.744c0.448,0.00001,0.832-0.056,1.152-0.168,0.336-0.128,0.624-0.264,0.864-0.408s0.44-0.272,0.6-0.384c0.176-0.128,0.328-0.192,0.456-0.192,0.224,0.00001,0.424,0.136,0.6,0.408l1.248,2.04c-0.736,0.688-1.624,1.232-2.664,1.632-1.04,0.384-2.112,0.576-3.216,0.576"/>
   <path style="" d="m529.2,466.2c0.464,0.768,0.8,1.536,1.008,2.304s0.312,1.536,0.312,2.304c-0.00001,1.456-0.36,2.848-1.08,4.176-0.704,1.312-1.688,2.52-2.952,3.624l-1.32-0.816c-0.128-0.08-0.216-0.168-0.264-0.264-0.032-0.096-0.048-0.192-0.048-0.288,0-0.224,0.08-0.416,0.24-0.576,0.256-0.304,0.504-0.632,0.744-0.984,0.24-0.368,0.456-0.744,0.648-1.128,0.192-0.4,0.344-0.816,0.456-1.248s0.168-0.888,0.168-1.368c0-0.512-0.08-1.04-0.24-1.584-0.144-0.544-0.4-1.12-0.768-1.728-0.112-0.176-0.168-0.352-0.168-0.528,0-0.384,0.216-0.664,0.648-0.84l2.616-1.056"/>
   <path style="" d="m543.8,502.7c-1.92,0-3.4-0.536-4.44-1.608-1.024-1.072-1.536-2.616-1.536-4.632v-14.88h-2.928c-0.256,0.00002-0.472-0.072-0.648-0.216-0.176-0.16-0.264-0.4-0.264-0.72v-1.704l3.984-0.504,0.984-7.512c0.032-0.24,0.136-0.432,0.312-0.576,0.176-0.16,0.4-0.24,0.672-0.24h2.16v8.376h6.96v3.096h-6.96v14.59c-0.00001,1.024,0.248,1.784,0.744,2.28s1.136,0.744,1.92,0.744c0.448,0.00001,0.832-0.056,1.152-0.168,0.336-0.128,0.624-0.264,0.864-0.408s0.44-0.272,0.6-0.384c0.176-0.128,0.328-0.192,0.456-0.192,0.224,0.00001,0.424,0.136,0.6,0.408l1.248,2.04c-0.736,0.688-1.624,1.232-2.664,1.632-1.04,0.384-2.112,0.576-3.216,0.576"/>
   <path style="" d="m559.1,478.1,0,24.31-4.272,0,0-24.31,4.272,0m0.96-7.632c-0.00001,0.416-0.088,0.808-0.264,1.176-0.16,0.352-0.384,0.672-0.672,0.96-0.272,0.272-0.592,0.488-0.96,0.648s-0.76,0.24-1.176,0.24c-0.416,0.00003-0.808-0.08-1.176-0.24-0.352-0.16-0.672-0.376-0.96-0.648-0.272-0.288-0.488-0.608-0.648-0.96-0.16-0.368-0.24-0.76-0.24-1.176s0.08-0.808,0.24-1.176c0.16-0.384,0.376-0.712,0.648-0.984,0.288-0.288,0.608-0.512,0.96-0.672,0.368-0.16,0.76-0.24,1.176-0.24,0.416,0.00004,0.808,0.08,1.176,0.24s0.688,0.384,0.96,0.672c0.288,0.272,0.512,0.6,0.672,0.984,0.176,0.368,0.264,0.76,0.264,1.176"/>
   <path style="" d="m571.4,467,0,35.35-4.272,0,0-35.35,4.272,0"/>
   <path style="" d="m595.3,509.5c-0.144,0.32-0.328,0.576-0.552,0.768-0.208,0.192-0.536,0.288-0.984,0.288h-3.168l4.44-9.648-10.03-22.9h3.696c0.368,0.00003,0.656,0.096,0.864,0.288,0.208,0.176,0.36,0.376,0.456,0.6l6.504,15.31c0.144,0.352,0.264,0.704,0.36,1.056,0.112,0.352,0.208,0.712,0.288,1.08,0.112-0.368,0.224-0.728,0.336-1.08s0.24-0.712,0.384-1.08l6.312-15.29c0.096-0.256,0.256-0.464,0.48-0.624,0.24-0.176,0.496-0.264,0.768-0.264h3.408l-13.56,31.49"/>
   <path style="" d="m621.9,477.7c1.776,0.00003,3.376,0.296,4.8,0.888,1.44,0.592,2.656,1.432,3.648,2.52,1.008,1.088,1.776,2.408,2.304,3.96,0.544,1.536,0.816,3.256,0.816,5.16-0.00003,1.92-0.272,3.648-0.816,5.184-0.528,1.536-1.296,2.848-2.304,3.936-0.992,1.088-2.208,1.928-3.648,2.52-1.424,0.576-3.024,0.864-4.8,0.864s-3.384-0.288-4.824-0.864c-1.424-0.592-2.64-1.432-3.648-2.52s-1.784-2.4-2.328-3.936-0.816-3.264-0.816-5.184c0-1.904,0.272-3.624,0.816-5.16,0.544-1.552,1.32-2.872,2.328-3.96s2.224-1.928,3.648-2.52c1.44-0.592,3.048-0.888,4.824-0.888m0,21.7c2.4,0.00001,4.192-0.8,5.376-2.4,1.184-1.616,1.776-3.864,1.776-6.744-0.00002-2.896-0.592-5.152-1.776-6.768s-2.976-2.424-5.376-2.424c-1.216,0.00002-2.272,0.208-3.168,0.624s-1.648,1.016-2.256,1.8c-0.592,0.784-1.04,1.752-1.344,2.904-0.288,1.136-0.432,2.424-0.432,3.864-0.00001,1.44,0.144,2.728,0.432,3.864,0.304,1.136,0.752,2.096,1.344,2.88,0.608,0.768,1.36,1.36,2.256,1.776s1.952,0.624,3.168,0.624"/>
   <path style="" d="m642.5,478.1,0,15.5c-0.00001,1.84,0.424,3.264,1.272,4.272s2.128,1.512,3.84,1.512c1.248,0.00001,2.424-0.296,3.528-0.888s2.12-1.416,3.048-2.472v-17.93h4.272v24.31h-2.544c-0.608,0-0.992-0.296-1.152-0.888l-0.336-2.616c-1.056,1.168-2.24,2.112-3.552,2.832-1.312,0.704-2.816,1.056-4.512,1.056-1.328,0-2.504-0.216-3.528-0.648-1.008-0.448-1.856-1.072-2.544-1.872s-1.208-1.768-1.56-2.904c-0.336-1.136-0.504-2.392-0.504-3.768v-15.5h4.272"/>
   <path style="" d="m674.8,502.4,0-35.35,4.272,0,0,14.3c1.04-1.104,2.192-1.984,3.456-2.64,1.264-0.672,2.72-1.008,4.368-1.008,1.328,0.00003,2.496,0.224,3.504,0.672,1.024,0.432,1.872,1.056,2.544,1.872,0.688,0.8,1.208,1.768,1.56,2.904s0.528,2.392,0.528,3.768v15.48h-4.272v-15.48c-0.00002-1.84-0.424-3.264-1.272-4.272-0.832-1.024-2.112-1.536-3.84-1.536-1.264,0.00002-2.448,0.304-3.552,0.912-1.088,0.608-2.096,1.432-3.024,2.472v17.9h-4.272"/>
   <path style="" d="m711.1,477.7c1.456,0.00003,2.8,0.248,4.032,0.744,1.232,0.48,2.296,1.184,3.192,2.112,0.896,0.912,1.592,2.048,2.088,3.408,0.512,1.344,0.768,2.88,0.768,4.608-0.00002,0.672-0.072,1.12-0.216,1.344s-0.416,0.336-0.816,0.336h-16.18c0.032,1.536,0.24,2.872,0.624,4.008s0.912,2.088,1.584,2.856c0.672,0.752,1.472,1.32,2.4,1.704,0.928,0.368,1.968,0.552,3.12,0.552,1.072,0.00001,1.992-0.12,2.76-0.36,0.784-0.256,1.456-0.528,2.016-0.816s1.024-0.552,1.392-0.792c0.384-0.256,0.712-0.384,0.984-0.384,0.352,0.00001,0.624,0.136,0.816,0.408l1.2,1.56c-0.528,0.64-1.16,1.2-1.896,1.68-0.736,0.464-1.528,0.848-2.376,1.152-0.832,0.304-1.696,0.528-2.592,0.672-0.896,0.16-1.784,0.24-2.664,0.24-1.68,0-3.232-0.28-4.656-0.84-1.408-0.576-2.632-1.408-3.672-2.496-1.024-1.104-1.824-2.464-2.4-4.08s-0.864-3.472-0.864-5.568c0-1.696,0.256-3.28,0.768-4.752,0.528-1.472,1.28-2.744,2.256-3.816,0.976-1.088,2.168-1.936,3.576-2.544,1.408-0.624,2.992-0.936,4.752-0.936m0.096,3.144c-2.064,0.00002-3.688,0.6-4.872,1.8-1.184,1.184-1.92,2.832-2.208,4.944h13.22c-0.00002-0.992-0.136-1.896-0.408-2.712-0.272-0.832-0.672-1.544-1.2-2.136-0.528-0.608-1.176-1.072-1.944-1.392-0.752-0.336-1.616-0.504-2.592-0.504"/>
   <path style="" d="m744.5,502.4-1.896,0c-0.416,0-0.752-0.064-1.008-0.192s-0.424-0.4-0.504-0.816l-0.48-2.256c-0.64,0.576-1.264,1.096-1.872,1.56-0.608,0.448-1.248,0.832-1.92,1.152-0.672,0.304-1.392,0.536-2.16,0.696-0.752,0.16-1.592,0.24-2.52,0.24-0.944,0-1.832-0.128-2.664-0.384-0.816-0.272-1.528-0.672-2.136-1.2s-1.096-1.192-1.464-1.992c-0.352-0.816-0.528-1.776-0.528-2.88,0-0.96,0.264-1.88,0.792-2.76,0.528-0.896,1.376-1.688,2.544-2.376,1.184-0.688,2.728-1.248,4.632-1.68,1.904-0.448,4.232-0.704,6.984-0.768v-1.896c-0.00002-1.888-0.408-3.312-1.224-4.272-0.8-0.976-1.992-1.464-3.576-1.464-1.04,0.00002-1.92,0.136-2.64,0.408-0.704,0.256-1.32,0.552-1.848,0.888-0.512,0.32-0.96,0.616-1.344,0.888-0.368,0.256-0.736,0.384-1.104,0.384-0.288,0.00002-0.544-0.072-0.768-0.216-0.208-0.16-0.376-0.352-0.504-0.576l-0.768-1.368c1.344-1.296,2.792-2.264,4.344-2.904s3.272-0.96,5.16-0.96c1.36,0.00003,2.568,0.224,3.624,0.672s1.944,1.072,2.664,1.872,1.264,1.768,1.632,2.904,0.552,2.384,0.552,3.744v15.55m-11.09-2.616c0.752,0.00001,1.44-0.072,2.064-0.216,0.624-0.16,1.208-0.376,1.752-0.648,0.56-0.288,1.088-0.632,1.584-1.032,0.512-0.4,1.008-0.856,1.488-1.368v-5.064c-1.968,0.064-3.64,0.224-5.016,0.48-1.376,0.24-2.496,0.56-3.36,0.96s-1.496,0.872-1.896,1.416c-0.384,0.544-0.576,1.152-0.576,1.824-0.00001,0.64,0.104,1.192,0.312,1.656s0.488,0.848,0.84,1.152c0.352,0.288,0.768,0.504,1.248,0.648,0.48,0.128,1,0.192,1.56,0.192"/>
   <path style="" d="m751,502.4,0-24.31,2.448,0c0.464,0.00003,0.784,0.088,0.96,0.264s0.296,0.48,0.36,0.912l0.288,3.792c0.832-1.696,1.856-3.016,3.072-3.96,1.232-0.96,2.672-1.44,4.32-1.44,0.672,0.00003,1.28,0.08,1.824,0.24,0.544,0.144,1.048,0.352,1.512,0.624l-0.552,3.192c-0.112,0.4-0.36,0.6-0.744,0.6-0.224,0.00002-0.568-0.072-1.032-0.216-0.464-0.16-1.112-0.24-1.944-0.24-1.488,0.00002-2.736,0.432-3.744,1.296-0.992,0.864-1.824,2.12-2.496,3.768v15.48h-4.272"/>
   <path style="" d="m787,502.7c-1.92,0-3.4-0.536-4.44-1.608-1.024-1.072-1.536-2.616-1.536-4.632v-14.88h-2.928c-0.256,0.00002-0.472-0.072-0.648-0.216-0.176-0.16-0.264-0.4-0.264-0.72v-1.704l3.984-0.504,0.984-7.512c0.032-0.24,0.136-0.432,0.312-0.576,0.176-0.16,0.4-0.24,0.672-0.24h2.16v8.376h6.96v3.096h-6.96v14.59c-0.00001,1.024,0.248,1.784,0.744,2.28s1.136,0.744,1.92,0.744c0.448,0.00001,0.832-0.056,1.152-0.168,0.336-0.128,0.624-0.264,0.864-0.408s0.44-0.272,0.6-0.384c0.176-0.128,0.328-0.192,0.456-0.192,0.224,0.00001,0.424,0.136,0.6,0.408l1.248,2.04c-0.736,0.688-1.624,1.232-2.664,1.632-1.04,0.384-2.112,0.576-3.216,0.576"/>
   <path style="" d="m797.5,502.4,0-35.35,4.272,0,0,14.3c1.04-1.104,2.192-1.984,3.456-2.64,1.264-0.672,2.72-1.008,4.368-1.008,1.328,0.00003,2.496,0.224,3.504,0.672,1.024,0.432,1.872,1.056,2.544,1.872,0.688,0.8,1.208,1.768,1.56,2.904s0.528,2.392,0.528,3.768v15.48h-4.272v-15.48c-0.00002-1.84-0.424-3.264-1.272-4.272-0.832-1.024-2.112-1.536-3.84-1.536-1.264,0.00002-2.448,0.304-3.552,0.912-1.088,0.608-2.096,1.432-3.024,2.472v17.9h-4.272"/>
   <path style="" d="m829,478.1,0,24.31-4.272,0,0-24.31,4.272,0m0.96-7.632c-0.00001,0.416-0.088,0.808-0.264,1.176-0.16,0.352-0.384,0.672-0.672,0.96-0.272,0.272-0.592,0.488-0.96,0.648s-0.76,0.24-1.176,0.24c-0.416,0.00003-0.808-0.08-1.176-0.24-0.352-0.16-0.672-0.376-0.96-0.648-0.272-0.288-0.488-0.608-0.648-0.96-0.16-0.368-0.24-0.76-0.24-1.176s0.08-0.808,0.24-1.176c0.16-0.384,0.376-0.712,0.648-0.984,0.288-0.288,0.608-0.512,0.96-0.672,0.368-0.16,0.76-0.24,1.176-0.24,0.416,0.00004,0.808,0.08,1.176,0.24s0.688,0.384,0.96,0.672c0.288,0.272,0.512,0.6,0.672,0.984,0.176,0.368,0.264,0.76,0.264,1.176"/>
   <path style="" d="m850.4,482.1c-0.192,0.352-0.488,0.528-0.888,0.528-0.24,0.00002-0.512-0.088-0.816-0.264s-0.68-0.368-1.128-0.576c-0.432-0.224-0.952-0.424-1.56-0.6-0.608-0.192-1.328-0.288-2.16-0.288-0.72,0.00002-1.368,0.096-1.944,0.288-0.576,0.176-1.072,0.424-1.488,0.744-0.4,0.32-0.712,0.696-0.936,1.128-0.208,0.416-0.312,0.872-0.312,1.368-0.00001,0.624,0.176,1.144,0.528,1.56,0.368,0.416,0.848,0.776,1.44,1.08s1.264,0.576,2.016,0.816c0.752,0.224,1.52,0.472,2.304,0.744,0.8,0.256,1.576,0.544,2.328,0.864s1.424,0.72,2.016,1.2,1.064,1.072,1.416,1.776c0.368,0.688,0.552,1.52,0.552,2.496-0.00002,1.12-0.2,2.16-0.6,3.12-0.4,0.944-0.992,1.768-1.776,2.472-0.784,0.688-1.744,1.232-2.88,1.632s-2.448,0.6-3.936,0.6c-1.696,0-3.232-0.272-4.608-0.816-1.376-0.56-2.544-1.272-3.504-2.136l1.008-1.632c0.128-0.208,0.28-0.368,0.456-0.48s0.408-0.168,0.696-0.168c0.288,0.00001,0.592,0.112,0.912,0.336s0.704,0.472,1.152,0.744c0.464,0.272,1.016,0.52,1.656,0.744,0.656,0.224,1.472,0.336,2.448,0.336,0.832,0.00001,1.56-0.104,2.184-0.312,0.624-0.224,1.144-0.52,1.56-0.888s0.72-0.792,0.912-1.272c0.208-0.48,0.312-0.992,0.312-1.536-0.00002-0.672-0.184-1.224-0.552-1.656-0.352-0.448-0.824-0.824-1.416-1.128-0.592-0.32-1.272-0.592-2.04-0.816-0.752-0.24-1.528-0.488-2.328-0.744-0.784-0.256-1.56-0.544-2.328-0.864-0.752-0.336-1.424-0.752-2.016-1.248s-1.072-1.104-1.44-1.824c-0.352-0.736-0.528-1.624-0.528-2.664,0-0.928,0.192-1.816,0.576-2.664,0.384-0.864,0.944-1.616,1.68-2.256,0.736-0.656,1.64-1.176,2.712-1.56s2.296-0.576,3.672-0.576c1.6,0.00003,3.032,0.256,4.296,0.768,1.28,0.496,2.384,1.184,3.312,2.064l-0.96,1.56"/>
   <path style="" d="m864.1,468,0,13.73c-0.00001,0.72-0.016,1.424-0.048,2.112-0.016,0.688-0.048,1.384-0.096,2.088-0.048,0.688-0.112,1.4-0.192,2.136-0.064,0.72-0.144,1.496-0.24,2.328h-2.904c-0.096-0.832-0.184-1.608-0.264-2.328-0.064-0.736-0.12-1.448-0.168-2.136-0.048-0.704-0.088-1.4-0.12-2.088-0.016-0.688-0.024-1.392-0.024-2.112v-13.73h4.056m-5.088,31.75c-0.00001-0.416,0.072-0.808,0.216-1.176,0.16-0.368,0.368-0.688,0.624-0.96,0.272-0.272,0.592-0.488,0.96-0.648s0.76-0.24,1.176-0.24c0.416,0.00001,0.808,0.08,1.176,0.24s0.688,0.376,0.96,0.648,0.48,0.592,0.624,0.96c0.16,0.368,0.24,0.76,0.24,1.176-0.00001,0.432-0.08,0.832-0.24,1.2-0.144,0.352-0.352,0.664-0.624,0.936s-0.592,0.48-0.96,0.624c-0.368,0.16-0.76,0.24-1.176,0.24s-0.808-0.08-1.176-0.24c-0.368-0.144-0.688-0.352-0.96-0.624-0.256-0.272-0.464-0.584-0.624-0.936-0.144-0.368-0.216-0.768-0.216-1.2"/>
  </g>
 </g>
</svg>
